comic-neue-angular-_regular-oblique.sfdir
StartChar: exclam
Encoding: 33 33 94
Width: 185
Flags: MW
HStem: 0 21G<-1 -1> 672 20G<207 207>
LayerCount: 2
Back
Fore
SplineSet
93 159 m 1
 37 148 l 1
 150 682 l 1
 207 692 l 1
 93 159 l 1
81 92 m 1
 57 10 l 1
 -1 0 l 1
 23 82 l 1
 81 92 l 1
EndSplineSet
EndChar
StartChar: quotedbl
Encoding: 34 34 114
Width: 312
Flags: MW
HStem: 500 21G<120 120 240 240> 670 20G<214 214 334 334>
LayerCount: 2
Back
Fore
SplineSet
176 510 m 1
 120 500 l 1
 158 680 l 1
 214 690 l 1
 176 510 l 1
296 510 m 1
 240 500 l 1
 278 680 l 1
 334 690 l 1
 296 510 l 1
EndSplineSet
EndChar
StartChar: numbersign
Encoding: 35 35 86
Width: 751
Flags: MW
HStem: 0 21G<89 89 299 299> 212 54<77 195 51 222 278 405 77 251 488 619> 431 53<163 304 136 331 163 360 387 514 597 710> 673 20G<492 492>
LayerCount: 2
Back
Fore
SplineSet
710 431 m 1
 570 431 l 1
 488 266 l 1
 646 266 l 1
 619 212 l 1
 461 212 l 1
 356 4 l 1
 299 0 l 1
 405 212 l 1
 251 212 l 1
 146 4 l 1
 89 0 l 1
 195 212 l 1
 51 212 l 1
 77 266 l 1
 222 266 l 1
 304 431 l 1
 136 431 l 1
 163 484 l 1
 331 484 l 1
 434 689 l 1
 492 693 l 1
 387 484 l 1
 541 484 l 1
 643 688 l 1
 701 692 l 1
 597 484 l 1
 736 484 l 1
 710 431 l 1
432 266 m 1
 514 431 l 1
 360 431 l 1
 278 266 l 1
 432 266 l 1
EndSplineSet
EndChar
StartChar: dollar
Encoding: 36 36 101
Width: 605
Flags: MW
HStem: -75 21G<213 213> 631 50<416 426> 731 20G<441 441>
VStem: 150 65<472.5 531.5 472.5 552.5> 466 65<166 243.5> 546 55<561 574.5>
LayerCount: 2
Back
Fore
SplineSet
363 383 m 1
 475 347 531 295 531 224 c 0
 531 95 399 14 282 1 c 1
 268 -65 l 1
 213 -75 l 1
 229 0 l 1
 124 8 51 67 41 152 c 1
 104 162 l 1
 114 95 175 61 240 54 c 1
 300 338 l 1
 224 363 150 407 150 483 c 0
 150 622 296 674 373 678 c 1
 386 741 l 1
 441 751 l 1
 426 681 l 1
 490 679 601 661 601 568 c 0
 601 554 599 534 593 521 c 1
 538 510 l 1
 541 522 546 536 546 548 c 0
 546 601 484 630 416 631 c 1
 363 383 l 1
362 628 m 1
 295 619 215 571 215 492 c 0
 215 453 244 425 313 399 c 1
 362 628 l 1
293 55 m 1
 368 67 466 119 466 213 c 0
 466 274 410 300 350 322 c 1
 293 55 l 1
EndSplineSet
EndChar
StartChar: percent
Encoding: 37 37 96
Width: 728
Flags: MW
HStem: -8 54<457.5 501.5 457.5 508> 0 21G<90 145 90 90> 210 54<486.5 531.5> 422 54<223 268.5 223 273> 640 54<253 297.5>
VStem: 121 55<523 568 523 573> 344 55<549 593.5> 356 55<92 136.5 92 143> 579 55<118 162.5>
LayerCount: 2
Back
Fore
SplineSet
231 422 m 0xbe80
 166 422 121 468 121 529 c 0
 121 617 205 694 289 694 c 0
 354 694 399 648 399 586 c 0
 399 499 315 422 231 422 c 0xbe80
466 -8 m 0
 401 -8 356 38 356 99 c 0xbd80
 356 187 440 264 524 264 c 0
 589 264 634 218 634 156 c 0
 634 69 550 -8 466 -8 c 0
616 689 m 1
 671 689 l 1
 145 0 l 1
 90 0 l 1x7e80
 616 689 l 1
278 640 m 0
 228 640 176 594 176 542 c 0
 176 504 203 476 243 476 c 0
 294 476 344 523 344 575 c 0
 344 612 317 640 278 640 c 0
512 210 m 0
 461 210 411 163 411 110 c 0
 411 74 438 46 477 46 c 0xbd80
 526 46 579 92 579 144 c 0
 579 181 551 210 512 210 c 0
EndSplineSet
EndChar
StartChar: ampersand
Encoding: 38 38 100
Width: 662
Flags: MW
HStem: -4 54<192 237> 637 53<348 395.5>
VStem: 40 55<119 208.5 119 214> 206 55<507 557 507 562> 452 54<542 582>
LayerCount: 2
Back
Fore
SplineSet
470 159 m 1
 548 34 l 1
 500 0 l 1
 430 110 l 1
 364 33 266 -4 208 -4 c 0
 122 -4 40 52 40 145 c 0
 40 283 158 345 251 390 c 1
 232 419 206 467 206 519 c 0
 206 605 298 690 386 690 c 0
 454 690 506 636 506 574 c 0
 506 456 395 411 334 376 c 1
 442 204 l 1
 465 238 488 281 509 333 c 1
 543 283 l 1
 519 233 496 193 470 159 c 1
375 637 m 0
 321 637 261 586 261 528 c 0
 261 486 287 441 306 417 c 1
 436 477 452 521 452 563 c 0
 452 601 416 637 375 637 c 0
219 50 m 0
 266 50 345 82 403 153 c 1
 281 350 l 1
 187 305 95 262 95 155 c 0
 95 83 165 50 219 50 c 0
EndSplineSet
EndChar
StartChar: quotesingle
Encoding: 39 39 113
Width: 192
Flags: MW
HStem: 500 21G<120 120> 670 20G<214 214>
LayerCount: 2
Back
Fore
SplineSet
176 510 m 1
 120 500 l 1
 158 680 l 1
 214 690 l 1
 176 510 l 1
EndSplineSet
EndChar
StartChar: parenleft
Encoding: 40 40 103
Width: 377
Flags: MW
HStem: -118 21G<177 177> 790 20G<397 397>
VStem: 71 55<173.5 328>
LayerCount: 2
Back
Fore
SplineSet
223 -79 m 1
 177 -118 l 1
 105 -31 71 98 71 222 c 0
 71 434 194 667 397 810 c 1
 421 768 l 1
 254 646 126 443 126 234 c 0
 126 113 162 -6 223 -79 c 1
EndSplineSet
EndChar
StartChar: parenright
Encoding: 41 41 102
Width: 377
Flags: MW
HStem: -118 21G<35 35> 790 20G<215 215>
VStem: 287 55<369 526.5 369 562.5>
LayerCount: 2
Back
Fore
SplineSet
169 771 m 1
 215 810 l 1
 311 710 342 583 342 470 c 0
 342 268 228 44 35 -118 c 1
 11 -76 l 1
 180 71 287 275 287 461 c 0
 287 664 170 766 169 771 c 1
EndSplineSet
EndChar
StartChar: asterisk
Encoding: 42 42 105
Width: 417
Flags: MW
HStem: 426 21G<161 161 323 323> 670 20G<270 324 324 324>
LayerCount: 2
Back
Fore
SplineSet
400 642 m 1
 415 594 l 1
 351 565 l 2
 334 557 304 551 301 551 c 1
 301 550 320 535 330 521 c 2
 371 462 l 1
 323 426 l 1
 282 487 l 2
 274 499 264 527 264 527 c 1
 264 527 242 499 228 486 c 2
 161 426 l 1
 129 462 l 1
 193 519 l 2
 207 532 233 549 233 549 c 1
 233 549 205 558 190 567 c 2
 142 594 l 1
 176 642 l 1
 222 616 l 2
 237 607 255 591 255 590 c 1
 254 590 256 621 259 637 c 2
 270 690 l 1
 324 690 l 1
 313 636 l 2
 309 618 298 589 298 589 c 1
 298 589 323 607 340 615 c 2
 400 642 l 1
EndSplineSet
EndChar
StartChar: plus
Encoding: 43 43 104
Width: 441
Flags: MW
HStem: 85 21G<156 156> 224 54<68 185 46 197 251 368 68 239> 393 20G<279 279>
LayerCount: 2
Back
Fore
SplineSet
391 278 m 1
 368 224 l 1
 239 224 l 1
 212 95 l 1
 156 85 l 1
 185 224 l 1
 46 224 l 1
 68 278 l 1
 197 278 l 1
 223 402 l 1
 279 413 l 1
 251 278 l 1
 391 278 l 1
EndSplineSet
EndChar
StartChar: comma
Encoding: 44 44 72
Width: 317
Flags: MW
HStem: -124 21G<57 57> 61 20G<125 125>
LayerCount: 2
Back
Fore
SplineSet
125 81 m 1
 186 42 l 1
 57 -124 l 1
 14 -96 l 1
 89 0 l 1
 54 22 l 1
 125 81 l 1
EndSplineSet
EndChar
StartChar: hyphen
Encoding: 45 45 112
Width: 442
Flags: MW
HStem: 223 54<84 355 63 376>
LayerCount: 2
Back
Fore
SplineSet
355 223 m 1
 63 223 l 1
 84 277 l 1
 376 277 l 1
 355 223 l 1
EndSplineSet
EndChar
StartChar: period
Encoding: 46 46 107
Width: 222
Flags: MW
HStem: 0 21G<14 14> 72 20G<115 115>
LayerCount: 2
Back
Fore
SplineSet
115 92 m 1
 90 10 l 1
 14 0 l 1
 40 82 l 1
 115 92 l 1
EndSplineSet
EndChar
StartChar: slash
Encoding: 47 47 74
Width: 492
Flags: MW
HStem: 0 21G<-28 33 -28 -28> 672 20G<499 560 560 560>
LayerCount: 2
Back
Fore
SplineSet
499 692 m 1
 560 692 l 1
 33 0 l 1
 -28 0 l 1
 499 692 l 1
EndSplineSet
EndChar
StartChar: zero
Encoding: 48 48 54
Width: 614
Flags: MW
HStem: -3 55<211.5 312 211.5 318.5> 631 55<337.5 437>
VStem: 71 56<185.5 339.5 185.5 340.5> 521 55<342.5 496>
LayerCount: 2
Back
Fore
SplineSet
240 -3 m 0
 133 -3 71 97 71 228 c 0
 71 453 247 686 409 686 c 0
 515 686 576 587 576 456 c 0
 576 224 397 -3 240 -3 c 0
398 631 m 0
 277 631 127 441 127 238 c 0
 127 133 171 52 252 52 c 0
 372 52 521 242 521 443 c 0
 521 549 476 631 398 631 c 0
EndSplineSet
EndChar
StartChar: one
Encoding: 49 49 55
Width: 414
Flags: MW
HStem: 0 54<41 152 206 283 20 152> 661 20G<349 349>
LayerCount: 2
Back
Fore
SplineSet
206 54 m 1
 304 54 l 1
 283 0 l 1
 20 0 l 1
 41 54 l 1
 152 54 l 1
 268 559 l 1
 140 462 l 1
 112 502 l 1
 349 681 l 1
 206 54 l 1
EndSplineSet
EndChar
StartChar: two
Encoding: 50 50 56
Width: 524
Flags: MW
HStem: 0 54<75 398> 620 54<298.5 365.5>
VStem: 454 55<544 564.5>
LayerCount: 2
Back
Fore
SplineSet
75 54 m 1
 419 54 l 1
 398 0 l 1
 10 0 l 1
 15 27 l 2
 43 176 121 241 249 317 c 0
 394 402 454 464 454 533 c 0
 454 596 390 620 341 620 c 0
 243 620 167 537 156 524 c 1
 128 566 l 1
 160 599 244 674 353 674 c 0
 474 674 509 605 509 544 c 0
 510 427 385 340 269 272 c 0
 162 209 106 167 75 54 c 1
EndSplineSet
EndChar
StartChar: three
Encoding: 51 51 57
Width: 549
Flags: MW
HStem: -4 54<192.5 258.5> 352 54<251 251 251 289> 629 54<312.5 385>
VStem: 416 57<187.5 281> 466 59<515.5 568.5>
LayerCount: 2
Back
Fore
SplineSet
382 385 m 1xe8
 439 360 473 316 473 250 c 0
 473 64 299 -4 218 -4 c 0
 132 -4 50 39 40 132 c 1
 96 154 l 1
 100 88 156 50 229 50 c 0
 326 50 416 137 416 238 c 0xf0
 416 324 336 352 242 352 c 1
 251 406 l 1
 373 413 466 474 466 548 c 0
 466 589 424 629 346 629 c 0
 272 629 208 580 193 569 c 1
 165 609 l 1
 190 629 267 683 358 683 c 0
 457 683 525 631 525 560 c 0
 525 471 449 413 382 385 c 1xe8
EndSplineSet
EndChar
StartChar: four
Encoding: 52 52 58
Width: 518
Flags: MW
HStem: 0 21G<289 289> 173 46<127 324> 664 20G<486 486>
LayerCount: 2
Back
Fore
SplineSet
343 10 m 1
 289 0 l 1
 324 173 l 1
 19 173 l 1
 486 684 l 1
 387 217 l 1
 454 217 l 1
 432 166 l 1
 376 166 l 1
 343 10 l 1
127 219 m 1
 335 219 l 1
 399 521 l 1
 127 219 l 1
EndSplineSet
EndChar
StartChar: five
Encoding: 53 53 59
Width: 562
Flags: MW
HStem: 0 53<193 281.5 193 282> 431 53<311 362> 619 53<250 542 250 250>
VStem: 451 52<243 345.5>
LayerCount: 2
Back
Fore
SplineSet
208 0 m 0
 155 0 68 24 39 131 c 1
 92 152 l 1
 108 85 167 53 219 53 c 0
 344 53 451 182 451 304 c 0
 451 387 393 431 331 431 c 0
 268 431 201 394 163 348 c 1
 118 364 l 1
 214 672 l 1
 563 672 l 1
 542 619 l 1
 250 619 l 1
 193 437 l 1
 231 462 280 484 342 484 c 0
 450 484 503 402 503 309 c 0
 503 141 356 0 208 0 c 0
EndSplineSet
EndChar
StartChar: six
Encoding: 54 54 60
Width: 546
Flags: MW
HStem: -5 53<202 290.5 202 298.5> 389 53<295.5 330.5> 664 20G<442 442>
VStem: 49 53<123.5 193.5 123.5 281.5> 429 53<231.5 332>
LayerCount: 2
Back
Fore
SplineSet
442 684 m 1
 448 634 l 1
 346 596 226 503 169 400 c 1
 210 422 264 442 327 442 c 0
 345 442 482 437 482 296 c 0
 482 160 375 -5 222 -5 c 0
 100 -5 49 69 49 169 c 0
 49 394 231 594 442 684 c 1
130 318 m 1
 112 273 102 212 102 175 c 0
 102 72 170 48 234 48 c 0
 347 48 429 179 429 284 c 0
 429 380 345 389 316 389 c 0
 223 389 153 337 130 318 c 1
EndSplineSet
EndChar
StartChar: seven
Encoding: 55 55 61
Width: 501
Flags: MW
HStem: 0 21G<99 99> 621 54<152 486 150 584>
LayerCount: 2
Back
Fore
SplineSet
99 0 m 1
 57 25 l 1
 486 621 l 1
 150 621 l 1
 152 675 l 1
 584 675 l 1
 99 0 l 1
EndSplineSet
EndChar
StartChar: eight
Encoding: 56 56 62
Width: 547
Flags: MW
HStem: -3 55<190.5 265 190.5 281> 630 56<320 391>
VStem: 45 54<121.5 204> 148 56<471 528.5 471 543> 411 56<163.5 248.5> 466 55<510.5 576>
LayerCount: 2
Back
Fore
SplineSet
216 -3 m 0xf8
 111 -3 45 55 45 140 c 0
 45 268 154 335 228 368 c 1
 185 389 148 422 148 478 c 0
 148 608 267 686 373 686 c 0
 463 686 521 636 521 561 c 0xf4
 521 458 440 404 376 375 c 1
 435 342 467 290 467 228 c 0
 467 99 346 -3 216 -3 c 0xf8
299 343 m 1
 224 315 99 264 99 151 c 0
 99 92 153 52 228 52 c 0
 302 52 411 103 411 215 c 0xf8
 411 282 358 324 299 343 c 1
308 401 m 1
 394 437 466 470 466 551 c 0xf4
 466 601 421 630 361 630 c 0
 275 630 204 565 204 492 c 0
 204 450 236 422 308 401 c 1
EndSplineSet
EndChar
StartChar: nine
Encoding: 57 57 63
Width: 546
Flags: MW
HStem: -3 21G<133 133> 239 53<244 278> 633 53<296 372>
VStem: 92 54<348 449 348 473.5> 473 52<486 557>
LayerCount: 2
Back
Fore
SplineSet
133 -3 m 1
 126 47 l 1
 239 89 344 178 405 281 c 1
 365 259 310 239 246 239 c 0
 229 239 92 244 92 384 c 0
 92 563 238 686 354 686 c 0
 475 686 525 613 525 512 c 0
 525 288 345 80 133 -3 c 1
445 363 m 1
 461 409 473 467 473 505 c 0
 473 609 404 633 340 633 c 0
 227 633 146 502 146 396 c 0
 146 300 230 292 258 292 c 0
 351 292 422 344 445 363 c 1
EndSplineSet
EndChar
StartChar: colon
Encoding: 58 58 71
Width: 250
Flags: MW
HStem: 0 21G<14 14> 425 20G<218 218>
LayerCount: 2
Back
Fore
SplineSet
218 445 m 1
 192 363 l 1
 116 353 l 1
 142 435 l 1
 218 445 l 1
115 92 m 1
 90 10 l 1
 14 0 l 1
 40 82 l 1
 115 92 l 1
EndSplineSet
EndChar
StartChar: semicolon
Encoding: 59 59 111
Width: 332
Flags: MW
HStem: -124 21G<57 57> 427 20G<288 288>
LayerCount: 2
Back
Fore
SplineSet
288 447 m 1
 261 365 l 1
 185 355 l 1
 211 437 l 1
 288 447 l 1
124 80 m 1
 186 41 l 1
 57 -124 l 1
 14 -96 l 1
 89 0 l 1
 54 22 l 1
 124 80 l 1
EndSplineSet
EndChar
StartChar: less
Encoding: 60 60 109
Width: 568
Flags: MW
HStem: -2 21G<391 391> 484 20G<517 517>
LayerCount: 2
Back
Fore
SplineSet
391 -2 m 1
 70 251 l 1
 517 504 l 1
 536 459 l 1
 168 250 l 1
 431 43 l 1
 391 -2 l 1
EndSplineSet
EndChar
StartChar: equal
Encoding: 61 61 90
Width: 505
Flags: MW
HStem: 146 53<74 396 53 417> 299 54<107 428 85 450>
LayerCount: 2
Back
Fore
SplineSet
428 299 m 1
 85 299 l 1
 107 353 l 1
 450 353 l 1
 428 299 l 1
396 146 m 1
 53 146 l 1
 74 199 l 1
 417 199 l 1
 396 146 l 1
EndSplineSet
EndChar
StartChar: greater
Encoding: 62 62 65
Width: 568
Flags: MW
HStem: -2 21G<49 49> 484 20G<175 175>
LayerCount: 2
Back
Fore
SplineSet
49 -2 m 1
 30 43 l 1
 398 252 l 1
 135 460 l 1
 175 504 l 1
 496 251 l 1
 49 -2 l 1
EndSplineSet
EndChar
StartChar: question
Encoding: 63 63 108
Width: 542
Flags: MW
HStem: 0 21G<95 95> 659 54<296.5 390.5>
VStem: 478 54<491 574>
LayerCount: 2
Back
Fore
SplineSet
350 713 m 0
 464 713 532 651 532 555 c 0
 532 416 414 339 347 289 c 2
 171 157 l 1
 154 205 l 1
 323 332 l 2
 387 380 478 438 478 544 c 0
 478 604 442 659 339 659 c 0
 244 659 171 572 163 561 c 1
 132 600 l 1
 161 633 243 713 350 713 c 0
177 92 m 1
 153 10 l 1
 95 0 l 1
 119 82 l 1
 177 92 l 1
EndSplineSet
EndChar
StartChar: at
Encoding: 64 64 85
Width: 828
Flags: MW
HStem: -95 53<302 407 302 420> 94 54<556 627.5 556 632.5> 108 53<314 340.5> 375 53<391.5 439.5> 563 54<397.5 573>
VStem: 59 54<114 292 114 304> 224 55<195.5 251 195.5 254> 722 56<296.5 404.5>
LayerCount: 2
Back
Fore
SplineSet
358 -42 m 0xdf
 456 -42 535 2 570 24 c 1
 617 -1 l 1
 605 -10 494 -95 346 -95 c 0
 177 -95 59 25 59 183 c 0
 59 425 285 617 507 617 c 0
 669 617 778 509 778 358 c 0
 778 223 696 94 569 94 c 0xdf
 511 94 455 130 449 179 c 1
 413 142 365 108 316 108 c 0
 259 108 224 140 224 198 c 0
 224 310 330 428 439 428 c 0
 473 428 506 417 533 393 c 1
 492 350 l 1
 472 366 451 375 428 375 c 0
 355 375 279 289 279 213 c 0
 279 178 300 161 328 161 c 0xbf
 383 161 453 255 474 288 c 1
 520 270 l 1
 507 247 502 226 502 210 c 0
 502 174 530 148 582 148 c 0
 673 148 722 246 722 347 c 0
 722 462 651 563 495 563 c 0
 300 563 113 394 113 190 c 0
 113 38 246 -42 358 -42 c 0xdf
EndSplineSet
EndChar
StartChar: A
Encoding: 65 65 1
Width: 623
Flags: MW
HStem: 0 21G<44 44> 660 20G<449 449>
LayerCount: 2
Back
Fore
SplineSet
449 680 m 1
 525 33 l 1
 471 1 l 1
 440 261 l 1
 164 206 l 1
 44 0 l 1
 0 26 l 1
 97 192 l 1
 55 184 l 1
 55 238 l 1
 133 253 l 1
 376 667 l 1
 449 680 l 1
200 267 m 1
 434 313 l 1
 400 607 l 1
 200 267 l 1
EndSplineSet
EndChar
StartChar: B
Encoding: 66 66 28
Width: 602
Flags: MW
HStem: 0 53<10 157> 332 53<134 285 145 285 285 318> 627 54<197 197 197 354>
VStem: 489 54<155 272>
LayerCount: 2
Back
Fore
SplineSet
10 0 m 1
 154 681 l 1
 365 681 l 2
 482 681 548 630 548 544 c 0
 548 468 503 402 414 369 c 1
 470 364 543 315 543 234 c 0
 543 22 202 0 77 0 c 2
 10 0 l 1
134 332 m 1
 75 54 l 1
 87 53 90 53 99 53 c 0
 215 53 489 81 489 229 c 0
 489 315 384 332 318 332 c 2
 134 332 l 1
197 627 m 1
 145 385 l 1
 285 385 l 2
 368 385 493 414 493 534 c 0
 493 582 464 627 354 627 c 2
 197 627 l 1
EndSplineSet
EndChar
StartChar: C
Encoding: 67 67 29
Width: 631
Flags: MW
HStem: -1 53<234.5 330> 628 53<340 458.5>
VStem: 50 54<187.5 303.5 187.5 305>
LayerCount: 2
Back
Fore
SplineSet
278 -1 m 0
 144 -1 50 94 50 227 c 0
 50 383 229 681 435 681 c 0
 491 681 539 665 572 635 c 1
 577 658 l 1
 623 658 l 1
 598 539 l 1
 552 539 l 1
 557 564 l 1
 537 594 499 628 418 628 c 0
 262 628 104 366 104 241 c 0
 104 134 179 52 290 52 c 0
 384 52 467 94 523 170 c 1
 553 131 l 1
 486 49 382 -1 278 -1 c 0
EndSplineSet
EndChar
StartChar: D
Encoding: 68 68 30
Width: 616
Flags: MW
HStem: -15 54<141.5 187 141.5 274.5> 660 20G<154 180 180 321.5>
VStem: 519 55<312.5 425>
LayerCount: 2
Back
Fore
SplineSet
10 1 m 1
 154 680 l 1
 180 680 l 2
 463 680 574 542 574 390 c 0
 574 141 401 -15 148 -15 c 0
 110 -15 47 -10 10 1 c 1
197 627 m 1
 73 45 l 1
 91 42 123 39 160 39 c 0
 214 39 295 47 365 86 c 0
 455 137 519 245 519 380 c 0
 519 470 479 537 399 579 c 0
 326 617 238 626 197 627 c 1
EndSplineSet
EndChar
StartChar: F
Encoding: 70 70 52
Width: 505
Flags: MW
HStem: 0 21G<5 5> 317 57<140 456 128 478> 625 56<193 572 193 193>
LayerCount: 2
Back
Fore
SplineSet
572 625 m 1
 193 625 l 1
 140 374 l 1
 478 374 l 1
 456 317 l 1
 128 317 l 1
 63 10 l 1
 5 0 l 1
 149 681 l 1
 594 681 l 1
 572 625 l 1
EndSplineSet
EndChar
StartChar: G
Encoding: 71 71 32
Width: 744
Flags: MW
HStem: -2 54<246 374.5 246 415> 236 53<547 564.5> 629 53<363 513.5>
VStem: 67 56<208 348.5> 641 55<466 477>
LayerCount: 2
Back
Fore
SplineSet
640 230 m 1
 620 182 531 -2 299 -2 c 0
 154 -2 67 104 67 252 c 0
 67 445 241 682 463 682 c 0
 614 682 692 598 696 477 c 1
 641 466 l 1
 637 565 575 629 452 629 c 0
 274 629 123 440 123 265 c 0
 123 151 181 52 311 52 c 0
 438 52 534 120 588 235 c 1
 579 236 567 236 562 236 c 0
 502 236 435 224 395 208 c 1
 407 266 l 1
 456 281 518 289 576 289 c 0
 617 289 656 285 687 277 c 1
 675 221 l 1
 667 224 653 229 640 230 c 1
EndSplineSet
EndChar
StartChar: H
Encoding: 72 72 33
Width: 683
Flags: MW
HStem: 0 21G<10 10 507 507> 661 20G<210 210 707 707>
LayerCount: 2
Back
Fore
SplineSet
649 671 m 1
 707 681 l 1
 567 20 l 1
 507 0 l 1
 581 349 l 1
 127 287 l 1
 70 20 l 1
 10 0 l 1
 152 671 l 1
 210 681 l 1
 139 344 l 1
 593 406 l 1
 649 671 l 1
EndSplineSet
EndChar
StartChar: I
Encoding: 73 73 34
Width: 437
Flags: MW
HStem: 0 56<26 149 205 312 5 149> 625 56<159 270 137 466 326 444 326 326>
LayerCount: 2
Back
Fore
SplineSet
444 625 m 1
 326 625 l 1
 205 56 l 1
 333 56 l 1
 312 0 l 1
 5 0 l 1
 26 56 l 1
 149 56 l 1
 270 625 l 1
 137 625 l 1
 159 681 l 1
 466 681 l 1
 444 625 l 1
EndSplineSet
EndChar
StartChar: J
Encoding: 74 74 35
Width: 469
Flags: MW
HStem: 1 51<149.5 216 149.5 220.5> 622 57<277 419 265 538 475 526 475 475>
VStem: 25 57<112.5 132.5>
LayerCount: 2
Back
Fore
SplineSet
277 679 m 1
 538 679 l 1
 526 622 l 1
 475 622 l 1
 377 162 l 2
 357 67 272 1 169 1 c 0
 81 1 25 52 25 127 c 0
 25 138 26 150 29 162 c 2
 36 197 l 1
 94 207 l 1
 85 162 l 2
 83 154 82 146 82 138 c 0
 82 87 119 52 180 52 c 0
 252 52 307 98 321 162 c 2
 419 622 l 1
 265 622 l 1
 277 679 l 1
EndSplineSet
EndChar
StartChar: K
Encoding: 75 75 36
Width: 577
Flags: MW
HStem: 0 21G<10 10 439 439> 661 20G<208 208>
LayerCount: 2
Back
Fore
SplineSet
481 43 m 1
 439 0 l 1
 124 285 l 1
 66 10 l 1
 10 0 l 1
 152 671 l 1
 208 681 l 1
 146 388 l 1
 555 680 l 1
 581 639 l 1
 156 336 l 1
 481 43 l 1
EndSplineSet
EndChar
StartChar: L
Encoding: 76 76 37
Width: 487
Flags: MW
HStem: 0 21G<10 10> 14 58 658 20G<210 210>
LayerCount: 2
Back
Fore
SplineSet
10 0 m 1
 151 668 l 1
 210 678 l 1
 78 60 l 1
 425 85 l 1
 417 29 l 1
 10 0 l 1
EndSplineSet
EndChar
StartChar: M
Encoding: 77 77 38
Width: 865
Flags: MW
HStem: 0 21G<-5 -5 325 325 702 702> 661 20G<332 332 758 758>
VStem: 304 50 702 58
LayerCount: 2
Back
Fore
SplineSet
284 557 m 1
 53 10 l 1
 -5 0 l 1
 277 671 l 1
 332 681 l 1
 376 65 l 1
 699 671 l 1
 758 681 l 1
 762 10 l 1
 702 0 l 1
 702 573 l 1
 403 10 l 1
 325 0 l 1
 284 557 l 1
EndSplineSet
EndChar
StartChar: N
Encoding: 78 78 39
Width: 615
Flags: MW
HStem: 0 21G<431 431> 661 20G<213 213 639 639>
LayerCount: 2
Back
Fore
SplineSet
584 671 m 1
 639 681 l 1
 497 13 l 1
 431 0 l 1
 188 588 l 1
 66 12 l 1
 11 1 l 1
 151 664 l 1
 213 681 l 1
 460 88 l 1
 584 671 l 1
EndSplineSet
EndChar
StartChar: O
Encoding: 79 79 40
Width: 660
Flags: MW
HStem: -2 52<217.5 332 217.5 340> 630 52<354 471.5>
VStem: 62 54<183.5 341.5 183.5 346> 576 56<333.5 485>
LayerCount: 2
Back
Fore
SplineSet
253 -2 m 0
 133 -2 62 98 62 229 c 0
 62 463 266 682 440 682 c 0
 560 682 632 583 632 450 c 0
 632 217 427 -2 253 -2 c 0
422 630 m 0
 286 630 116 446 116 237 c 0
 116 130 171 50 264 50 c 0
 400 50 576 233 576 431 c 0
 576 539 521 630 422 630 c 0
EndSplineSet
EndChar
StartChar: P
Encoding: 80 80 41
Width: 545
Flags: MW
HStem: 0 21G<10 10> 238 55<115 127> 623 56<197 329.5 197 329.5>
VStem: 506 59<442 532.5>
LayerCount: 2
Back
Fore
SplineSet
115 238 m 1
 67 10 l 1
 10 0 l 1
 153 674 l 1
 176 676 232 679 266 679 c 0
 393 679 565 655 565 515 c 0
 565 318 304 244 115 238 c 1
197 623 m 1
 127 293 l 1
 368 303 506 387 506 497 c 0
 506 568 446 623 243 623 c 2
 197 623 l 1
EndSplineSet
EndChar
StartChar: Q
Encoding: 81 81 42
Width: 721
Flags: MW
HStem: -35 21G<584 584> -1 53<235.5 308> 625 54<372.5 506>
VStem: 54 62<189 345 189 351.5> 629 63<373 475.5>
LayerCount: 2
Back
Fore
SplineSet
512 92 m 1
 618 12 l 1
 584 -35 l 1
 463 57 l 1
 404 20 339 -1 277 -1 c 0
 139 -1 54 101 54 237 c 0
 54 466 273 679 469 679 c 0
 607 679 692 575 692 440 c 0
 692 306 614 174 512 92 c 1
474 126 m 1
 558 194 629 307 629 420 c 0
 629 531 563 625 449 625 c 0
 296 625 116 445 116 245 c 0
 116 133 182 52 289 52 c 0
 334 52 381 67 424 92 c 1
 326 163 l 1
 383 193 l 1
 474 126 l 1
EndSplineSet
EndChar
StartChar: T
Encoding: 84 84 45
Width: 522
Flags: MW
HStem: 0 21G<170 170> 625 56<99 302 87 601 359 359 359 589>
LayerCount: 2
Back
Fore
SplineSet
170 0 m 1
 302 625 l 1
 87 625 l 1
 99 681 l 1
 601 681 l 1
 589 625 l 1
 359 625 l 1
 229 10 l 1
 170 0 l 1
EndSplineSet
EndChar
StartChar: V
Encoding: 86 86 47
Width: 540
Flags: MW
HStem: 0 21G<167 167> 660 20G<567 567>
LayerCount: 2
Back
Fore
SplineSet
216 86 m 1
 567 680 l 1
 615 659 l 1
 232 11 l 1
 167 0 l 1
 95 659 l 1
 152 679 l 1
 216 86 l 1
EndSplineSet
EndChar
StartChar: W
Encoding: 87 87 48
Width: 878
Flags: MW
HStem: 0 21G<152 152 525 525> 661 20G<153 153 553 553>
VStem: 514 50
LayerCount: 2
Back
Fore
SplineSet
957 680 m 1
 587 11 l 1
 525 0 l 1
 503 579 l 1
 212 11 l 1
 152 0 l 1
 97 671 l 1
 153 681 l 1
 201 100 l 1
 492 670 l 1
 553 681 l 1
 575 92 l 1
 894 669 l 1
 957 680 l 1
EndSplineSet
EndChar
StartChar: X
Encoding: 88 88 49
Width: 680
Flags: MW
HStem: 0 21G<35 35 528 528> 661 20G<201 201 679 679>
LayerCount: 2
Back
Fore
SplineSet
397 344 m 1
 578 36 l 1
 528 0 l 1
 351 301 l 1
 35 0 l 1
 3 39 l 1
 325 345 l 1
 151 645 l 1
 201 681 l 1
 371 389 l 1
 679 681 l 1
 711 642 l 1
 397 344 l 1
EndSplineSet
EndChar
StartChar: bracketleft
Encoding: 91 91 77
Width: 315
Flags: MW
HStem: -124 54<50 152> 751 54<224 353 224 224>
LayerCount: 2
Back
Fore
SplineSet
152 -124 m 1
 -16 -124 l 1
 182 805 l 1
 375 805 l 1
 353 751 l 1
 224 751 l 1
 50 -70 l 1
 174 -70 l 1
 152 -124 l 1
EndSplineSet
EndChar
StartChar: backslash
Encoding: 92 92 81
Width: 492
Flags: MW
HStem: 0 21G<351 413 351 351> 673 20G<118 179 179 179>
LayerCount: 2
Back
Fore
SplineSet
179 693 m 1
 413 0 l 1
 351 0 l 1
 118 693 l 1
 179 693 l 1
EndSplineSet
EndChar
StartChar: bracketright
Encoding: 93 93 76
Width: 315
Flags: MW
HStem: -124 54<1 130 1 172 -21 130> 751 54<203 304 180 370>
LayerCount: 2
Back
Fore
SplineSet
203 805 m 1
 370 805 l 1
 172 -124 l 1
 -21 -124 l 1
 1 -70 l 1
 130 -70 l 1
 304 751 l 1
 180 751 l 1
 203 805 l 1
EndSplineSet
EndChar
StartChar: asciicircum
Encoding: 94 94 127
Width: 500
Flags: MW
HStem: 718 21G<240 240> 861 20G<392 392>
LayerCount: 2
Back
Fore
SplineSet
240 718 m 1
 216 760 l 1
 392 881 l 1
 495 759 l 1
 450 719 l 1
 373 806 l 1
 240 718 l 1
EndSplineSet
EndChar
StartChar: underscore
Encoding: 95 95 95
Width: 476
Flags: MW
HStem: -54 54<-57 411 -78 433>
LayerCount: 2
Back
Fore
SplineSet
411 -54 m 1
 -78 -54 l 1
 -57 0 l 1
 433 0 l 1
 411 -54 l 1
EndSplineSet
EndChar
StartChar: grave
Encoding: 96 96 128
Width: 500
Flags: MW
HStem: 726 21G<396 396> 880 20G<353 353>
LayerCount: 2
Back
Fore
SplineSet
448 754 m 1
 396 726 l 1
 286 866 l 1
 353 900 l 1
 448 754 l 1
EndSplineSet
EndChar
StartChar: a
Encoding: 97 97 2
Width: 504
Flags: MW
HStem: 0 21G<328 328> 7 55<194 212> 458 55<256.5 351>
VStem: 35 59<148.5 206.5 148.5 237>
LayerCount: 2
Back
Fore
SplineSet
484 472 m 1x70
 386 11 l 1
 328 0 l 1xb0
 339 54 l 1
 300 33 240 7 184 7 c 0
 92 7 35 69 35 164 c 0
 35 310 172 513 341 513 c 0
 396 513 444 495 484 472 c 1x70
194 62 m 0x70
 254 62 325 103 351 120 c 1
 423 436 l 1
 406 444 368 458 334 458 c 0
 158 458 94 235 94 178 c 0
 94 119 119 63 194 62 c 0x70
EndSplineSet
EndChar
StartChar: b
Encoding: 98 98 4
Width: 528
Flags: MW
HStem: 0 21G<66 66> 1 54<178.5 275 178.5 297> 434 56<315.5 378.5> 672 20G<213 213>
VStem: 432 55<263.5 350>
LayerCount: 2
Back
Fore
SplineSet
353 490 m 0xb8
 454 490 487 419 487 339 c 0
 487 188 390 1 204 1 c 0x78
 152 1 100 16 72 29 c 1
 66 0 l 1
 12 10 l 1
 154 681 l 1
 213 692 l 1
 152 409 l 1
 198 459 278 490 353 490 c 0xb8
207 55 m 0
 343 55 432 177 432 323 c 0
 432 377 413 434 344 434 c 0
 237 434 144 370 127 291 c 2
 83 82 l 1
 99 73 150 55 207 55 c 0
EndSplineSet
EndChar
StartChar: c
Encoding: 99 99 5
Width: 507
Flags: MW
HStem: 0 52<211 233 211 253> 450 52<254 339>
VStem: 36 54<123.5 217 123.5 226>
LayerCount: 2
Back
Fore
SplineSet
233 52 m 0
 295 55 354 88 391 137 c 1
 422 97 l 1
 371 38 293 0 213 0 c 0
 112 0 36 73 36 173 c 0
 36 279 166 502 325 502 c 0
 389 502 437 477 462 430 c 1
 414 391 l 1
 399 429 362 450 316 450 c 0
 192 450 90 258 90 176 c 0
 90 71 189 52 233 52 c 0
EndSplineSet
EndChar
StartChar: d
Encoding: 100 100 6
Width: 526
Flags: MW
HStem: 0 21G<334 334> 6 49<143.5 206.5> 442 53<236.5 331.5> 677 20G<554 554>
VStem: 36 56<136.5 194.5 136.5 251>
LayerCount: 2
Back
Fore
SplineSet
495 687 m 1x78
 554 697 l 1
 392 10 l 1
 334 0 l 1xb8
 353 80 l 1
 311 48 246 6 167 6 c 0
 74 6 36 75 36 158 c 0
 36 344 158 495 315 495 c 0
 370 495 413 479 442 464 c 1
 495 687 l 1x78
372 162 m 2
 428 404 l 1
 412 414 361 442 302 442 c 0
 136 442 92 225 92 164 c 0
 92 109 110 55 177 55 c 0x78
 278 55 365 131 372 162 c 2
EndSplineSet
EndChar
StartChar: f
Encoding: 102 102 8
Width: 332
Flags: MW
HStem: 0 21G<50 50> 451 51<80 145 60 156 217 325 80 201> 640 54<326 378 378 390>
LayerCount: 2
Back
Fore
SplineSet
424 693 m 1
 390 640 l 1
 378 640 l 2
 269 640 238 600 217 502 c 1
 348 502 l 1
 325 451 l 1
 201 451 l 1
 108 10 l 1
 50 0 l 1
 145 451 l 1
 60 451 l 1
 80 502 l 1
 156 502 l 1
 186 642 259 694 393 694 c 0
 403 694 412 694 424 693 c 1
EndSplineSet
EndChar
StartChar: g
Encoding: 103 103 9
Width: 522
Flags: MW
HStem: -185 56<139.5 211.5> 0 53<159 223> 446 55<268.5 352> 488 20G<509 509>
VStem: 39 51<159 245>
LayerCount: 2
Back
Fore
SplineSet
509 508 m 1xd8
 395 19 l 2
 364 -112 274 -185 149 -185 c 0
 101 -185 55 -178 25 -171 c 1
 49 -116 l 1
 76 -122 118 -129 161 -129 c 0
 292 -129 327 -25 338 18 c 2
 353 79 l 1
 307 31 252 0 194 0 c 0
 99 0 39 70 39 173 c 0
 39 317 166 501 339 501 c 0xe8
 386 501 421 484 444 469 c 1
 451 499 l 1
 509 508 l 1xd8
428 413 m 1xd8
 408 431 372 446 332 446 c 0xe8
 205 446 90 320 90 192 c 0
 90 126 118 53 200 53 c 0
 271 53 362 106 397 268 c 2
 428 413 l 1xd8
EndSplineSet
EndChar
StartChar: h
Encoding: 104 104 3
Width: 504
Flags: MW
HStem: 0 21G<10 10 342 342> 451 54<329 375> 672 20G<213 213>
VStem: 405 55<344.5 392.5>
LayerCount: 2
Back
Fore
SplineSet
107 196 m 2
 68 10 l 1
 10 0 l 1
 154 681 l 1
 213 692 l 1
 137 336 l 1
 190 416 287 505 371 505 c 0
 434 505 460 461 460 374 c 0
 460 315 449 238 428 142 c 0
 414 78 402 28 398 10 c 1
 342 0 l 1
 345 14 358 69 372 136 c 0
 393 234 405 311 405 364 c 0
 405 421 391 451 359 451 c 0
 273 451 164 319 141 285 c 0
 124 260 114 230 107 196 c 2
EndSplineSet
EndChar
StartChar: i
Encoding: 105 105 10
Width: 193
Flags: MW
HStem: 0 21G<10 10> 669 20G<219 219>
LayerCount: 2
Back
Fore
SplineSet
114 491 m 1
 175 500 l 1
 71 10 l 1
 10 0 l 1
 114 491 l 1
219 689 m 1
 196 607 l 1
 136 597 l 1
 161 679 l 1
 219 689 l 1
EndSplineSet
EndChar
StartChar: j
Encoding: 106 106 11
Width: 313
Flags: MW
HStem: -180 51<19 65.5 19 83.5> 677 20G<340 340>
LayerCount: 2
Back
Fore
SplineSet
340 697 m 1
 315 615 l 1
 257 605 l 1
 281 687 l 1
 340 697 l 1
-97 -10 m 1
 -39 2 l 1
 -31 -38 -5 -129 43 -129 c 0
 88 -129 119 -73 134 -5 c 0
 137 12 183 239 235 502 c 1
 295 513 l 1
 241 247 196 17 193 0 c 0
 177 -72 130 -180 37 -180 c 0
 -61 -180 -93 -27 -97 -10 c 1
EndSplineSet
EndChar
StartChar: k
Encoding: 107 107 12
Width: 494
Flags: MW
HStem: 0 21G<12 12 366 366> 672 20G<214 214>
LayerCount: 2
Back
Fore
SplineSet
266 298 m 1
 275 286 342 169 416 37 c 1
 366 0 l 1
 318 107 252 214 217 264 c 1
 171 235 136 214 110 201 c 1
 71 10 l 1
 12 0 l 1
 154 681 l 1
 214 692 l 1
 121 254 l 1
 186 291 362 432 462 534 c 1
 499 502 l 1
 443 445 318 334 266 298 c 1
EndSplineSet
EndChar
StartChar: l
Encoding: 108 108 13
Width: 226
Flags: MW
HStem: 0 21G<30 30> 672 20G<233 233>
LayerCount: 2
Back
Fore
SplineSet
174 681 m 1
 233 692 l 1
 88 10 l 1
 30 0 l 1
 174 681 l 1
EndSplineSet
EndChar
StartChar: m
Encoding: 109 109 14
Width: 817
Flags: MW
HStem: 0 21G<10 10 338 338 640 640> 462 49<335 369.5 641 671.5>
VStem: 415 57 717 57<386 423.5>
LayerCount: 2
Back
Fore
SplineSet
143 306 m 0
 128 288 122 264 122 264 c 1
 68 10 l 1
 10 0 l 1
 112 482 l 1
 170 492 l 1
 142 362 l 1
 211 435 298 511 366 511 c 0
 416 511 471 490 472 400 c 1
 533 467 614 511 668 511 c 0
 719 511 774 489 774 396 c 0
 774 376 772 353 766 326 c 2
 699 10 l 1
 640 0 l 1
 710 333 l 2
 715 357 717 377 717 393 c 0
 717 454 685 462 658 462 c 0
 604 462 477 396 453 282 c 2
 396 10 l 1
 338 0 l 1
 408 333 l 2
 413 357 415 377 415 393 c 0
 415 454 383 462 356 462 c 0
 314 462 233 415 143 306 c 0
EndSplineSet
EndChar
StartChar: o
Encoding: 111 111 16
Width: 535
Flags: MW
HStem: 0 48<171 258 171 265.5> 452 48<266.5 354>
VStem: 37 58<143.5 249 143.5 259.5> 433 60<245 351>
LayerCount: 2
Back
Fore
SplineSet
197 0 m 0
 99 0 37 75 37 176 c 0
 37 343 195 500 334 500 c 0
 431 500 493 423 493 323 c 0
 493 154 334 0 197 0 c 0
319 452 m 0
 214 452 95 317 95 181 c 0
 95 106 135 48 207 48 c 0
 309 48 433 178 433 312 c 0
 433 390 389 452 319 452 c 0
EndSplineSet
EndChar
StartChar: p
Encoding: 112 112 17
Width: 518
Flags: MW
HStem: -193 21G<-32 -32> 7 56<184.5 281.5 184.5 288.5> 447 49<314 358 314 373> 479 20G<172 172>
VStem: 428 49<265 361>
LayerCount: 2
Back
Fore
SplineSet
358 496 m 0xe8
 443 493 477 420 477 338 c 0
 477 188 378 7 199 7 c 0
 147 7 101 22 73 35 c 1
 27 -183 l 1
 -32 -193 l 1
 113 488 l 1
 172 499 l 1xd8
 156 428 l 1
 205 465 270 496 358 496 c 0xe8
214 63 m 0
 349 63 428 198 428 332 c 0
 428 390 408 447 338 447 c 0
 235 447 164 385 142 360 c 1
 86 97 l 1
 103 88 155 63 214 63 c 0
EndSplineSet
EndChar
StartChar: q
Encoding: 113 113 18
Width: 523
Flags: MW
HStem: -196 21G<281 281> -10 52<171.5 234.5> 445 51<297.5 377> 490 20G<451 456>
VStem: 33 52<128.5 245.5>
LayerCount: 2
Back
Fore
SplineSet
451 490 m 1xd8
 456 510 l 1xd8
 510 508 l 1
 339 -186 l 1
 281 -196 l 1
 344 59 l 1
 307 12 270 -10 199 -10 c 0
 97 -10 33 61 33 158 c 0
 33 333 189 496 377 496 c 0xe8
 400 496 426 494 451 490 c 1xd8
371 163 m 2
 439 438 l 1
 417 442 388 445 366 445 c 0xe8
 229 445 85 328 85 166 c 0
 85 91 134 42 209 42 c 0
 289 42 352 85 371 163 c 2
EndSplineSet
EndChar
StartChar: r
Encoding: 114 114 19
Width: 401
Flags: MW
HStem: 0 21G<10 10> 447 55<303 337>
LayerCount: 2
Back
Fore
SplineSet
410 428 m 2
 402 389 l 1
 345 379 l 1
 352 412 l 2
 353 418 354 423 354 427 c 0
 354 439 348 447 326 447 c 0
 255 447 139 348 119 252 c 2
 68 10 l 1
 10 0 l 1
 114 492 l 1
 172 502 l 1
 145 376 l 1
 188 430 262 502 344 502 c 0
 386 502 412 477 412 444 c 0
 412 440 411 432 410 428 c 2
EndSplineSet
EndChar
StartChar: s
Encoding: 115 115 20
Width: 460
Flags: MW
HStem: 0 50<161 209> 458 47<271.5 316.5>
VStem: 100 58<348.5 388.5 348.5 417.5> 329 58<127 182> 386 52<413 421>
LayerCount: 2
Back
Fore
SplineSet
306 505 m 0xf0
 358 505 438 489 438 419 c 0
 438 407 435 393 431 379 c 1
 380 369 l 1
 384 378 386 390 386 399 c 0xe8
 386 443 337 458 296 458 c 0
 201 458 158 413 158 364 c 0
 158 333 190 311 254 292 c 0
 343 266 387 226 387 171 c 0
 387 36 236 0 182 0 c 0
 99 0 26 44 20 121 c 1
 77 130 l 1
 82 77 133 50 189 50 c 0
 255 50 329 95 329 159 c 0
 329 205 288 220 222 243 c 0
 162 264 100 288 100 355 c 0
 100 480 237 505 306 505 c 0xf0
EndSplineSet
EndChar
StartChar: t
Encoding: 116 116 21
Width: 373
Flags: MW
HStem: 0 21G<103 103> 446 56<71 197 59 209 266 392 71 254> 651 20G<302 302>
LayerCount: 2
Back
Fore
SplineSet
404 502 m 1
 392 446 l 1
 254 446 l 1
 162 10 l 1
 103 0 l 1
 197 446 l 1
 59 446 l 1
 71 502 l 1
 209 502 l 1
 243 661 l 1
 302 671 l 1
 266 502 l 1
 404 502 l 1
EndSplineSet
EndChar
StartChar: u
Encoding: 117 117 22
Width: 516
Flags: MW
HStem: -6 49<145.5 200> 484 20G<189 189 503 503>
VStem: 46 56<104.5 142.5>
LayerCount: 2
Back
Fore
SplineSet
126 289 m 0
 114 233 102 175 102 130 c 0
 102 79 118 43 173 43 c 0
 242 43 323 92 349 116 c 0
 359 124 366 138 371 159 c 2
 448 494 l 1
 503 504 l 1
 398 10 l 1
 334 0 l 1
 349 74 l 1
 316 36 239 -6 161 -6 c 0
 72 -6 46 46 46 117 c 0
 46 168 60 230 72 289 c 0
 81 334 105 426 132 494 c 1
 189 504 l 1
 182 488 144 374 126 289 c 0
EndSplineSet
EndChar
StartChar: v
Encoding: 118 118 23
Width: 447
Flags: MW
HStem: 0 21G<142 142> 480 20G
LayerCount: 2
Back
Fore
SplineSet
484 480 m 1
 202 12 l 1
 142 0 l 1
 56 479 l 1
 114 500 l 1
 184 77 l 1
 436 500 l 1
 484 480 l 1
EndSplineSet
EndChar
StartChar: w
Encoding: 119 119 24
Width: 653
Flags: MW
HStem: 0 21G<83 83 368 368> 477 20G<144 144>
VStem: 85 56 362 52
LayerCount: 2
Back
Fore
SplineSet
683 496 m 1
 428 12 l 1
 368 0 l 1
 357 388 l 1
 145 12 l 1
 83 0 l 1
 88 485 l 1
 144 497 l 1
 138 91 l 1
 353 485 l 1
 411 495 l 1
 417 88 l 1
 620 485 l 1
 683 496 l 1
EndSplineSet
EndChar
StartChar: x
Encoding: 120 120 25
Width: 510
Flags: MW
HStem: 0 21G<388 388> 482 20G<144 144>
LayerCount: 2
Back
Fore
SplineSet
252 222 m 1
 -5 2 l 1
 -37 42 l 1
 224 260 l 1
 94 466 l 1
 144 502 l 1
 270 296 l 1
 511 501 l 1
 543 462 l 1
 299 257 l 1
 438 36 l 1
 388 0 l 1
 252 222 l 1
EndSplineSet
EndChar
StartChar: y
Encoding: 121 121 26
Width: 500
Flags: MW
HStem: -197 21G<71 71> 480 20G<480 480>
LayerCount: 2
Back
Fore
SplineSet
480 500 m 1
 526 476 l 1
 71 -197 l 1
 25 -173 l 1
 183 61 l 1
 65 474 l 1
 121 499 l 1
 227 127 l 1
 480 500 l 1
EndSplineSet
EndChar
StartChar: z
Encoding: 122 122 27
Width: 453
Flags: MW
HStem: 0 56<61 351> 446 56<113 387 91 452>
LayerCount: 2
Back
Fore
SplineSet
351 0 m 1
 -3 0 l 1
 -16 46 l 1
 387 446 l 1
 91 446 l 1
 113 502 l 1
 452 502 l 1
 465 457 l 1
 61 56 l 1
 372 56 l 1
 351 0 l 1
EndSplineSet
EndChar
StartChar: braceleft
Encoding: 123 123 83
Width: 374
Flags: MW
HStem: -125 21G<229 229> 756 54<415 429>
VStem: 84 56<-17 -4> 135 55<256 269.5>
LayerCount: 2
Back
Fore
SplineSet
86 325 m 1xd0
 96 375 l 1
 141 392 174 425 184 473 c 2
 224 662 l 2
 248 776 368 809 429 810 c 1
 415 756 l 1
 350 753 290 719 278 662 c 2
 238 474 l 2
 231 442 212 390 153 350 c 1
 175 330 190 301 190 262 c 0xd0
 190 250 189 239 186 226 c 2
 142 23 l 2
 141 16 140 10 140 4 c 0
 140 -38 174 -65 242 -71 c 1
 229 -125 l 1
 175 -123 84 -96 84 -9 c 0xe0
 84 1 85 12 88 23 c 2
 133 234 l 2
 134 240 135 247 135 253 c 0
 135 286 115 313 86 325 c 1xd0
EndSplineSet
EndChar
StartChar: bar
Encoding: 124 124 93
Width: 255
Flags: MW
HStem: -71 21G<30 30> 735 20G<260 260>
LayerCount: 2
Back
Fore
SplineSet
87 -61 m 1
 30 -71 l 1
 204 745 l 1
 260 755 l 1
 87 -61 l 1
EndSplineSet
EndChar
StartChar: braceright
Encoding: 125 125 82
Width: 374
Flags: MW
HStem: -125 54<-27 -14> 790 20G<173 173>
VStem: 212 54<417 428.5> 261 55<688.5 701.5>
LayerCount: 2
Back
Fore
SplineSet
305 310 m 1xd0
 261 293 228 260 218 212 c 2
 177 23 l 2
 152 -91 33 -124 -27 -125 c 1
 -14 -71 l 1
 52 -68 111 -34 123 23 c 2
 163 211 l 2
 170 243 189 295 249 335 c 1
 227 354 212 384 212 423 c 0xe0
 212 434 213 446 216 459 c 2
 259 662 l 2
 260 668 261 675 261 681 c 0
 261 722 228 750 159 756 c 1
 173 810 l 1
 226 808 316 781 316 693 c 0xd0
 316 684 315 673 313 662 c 2
 268 451 l 2
 267 445 266 439 266 434 c 0xe0
 266 400 286 372 316 360 c 1
 305 310 l 1xd0
EndSplineSet
EndChar
StartChar: asciitilde
Encoding: 126 126 89
Width: 645
Flags: MW
HStem: 150 54<392.5 429.5 392.5 447> 298 54<192.5 239.5>
LayerCount: 2
Back
Fore
SplineSet
542 332 m 1
 587 308 l 1
 567 271 498 150 396 150 c 0
 337 150 313 193 292 232 c 0
 273 266 256 298 223 298 c 0
 152 298 105 199 98 184 c 1
 54 208 l 1
 86 273 151 352 234 352 c 0
 297 352 321 303 344 262 c 0
 361 231 377 204 408 204 c 0
 451 204 507 258 542 332 c 1
EndSplineSet
EndChar
StartChar: exclamdown
Encoding: 161 161 214
Width: 185
Flags: MW
HStem: -192 21G<-40 -40> 480 20G<168 168>
LayerCount: 2
Back
Fore
SplineSet
73 341 m 1
 129 352 l 1
 16 -182 l 1
 -40 -192 l 1
 73 341 l 1
85 408 m 1
 110 490 l 1
 168 500 l 1
 143 418 l 1
 85 408 l 1
EndSplineSet
EndChar
StartChar: cent
Encoding: 162 162 99
Width: 506
Flags: MW
HStem: 0 21G<170 170> 97 52<239 281.5> 668 20G<380 380>
VStem: 57 55<252 327>
LayerCount: 2
Back
Fore
SplineSet
239 97 m 1
 220 17 l 1
 170 0 l 1
 194 101 l 1
 100 128 57 190 57 267 c 0
 57 387 166 554 311 595 c 1
 329 670 l 1
 380 688 l 1
 359 599 l 1
 415 597 460 570 483 527 c 1
 434 488 l 1
 420 523 387 544 346 547 c 1
 251 149 l 1
 312 149 375 186 411 234 c 1
 442 194 l 1
 393 138 320 100 239 97 c 1
206 154 m 1
 298 540 l 1
 208 505 112 384 112 279 c 0
 112 225 140 178 206 154 c 1
EndSplineSet
EndChar
StartChar: sterling
Encoding: 163 163 98
Width: 764
Flags: MW
HStem: -10 54<464.5 495.5> 71 54<271.5 279> 328 53<108 210 108 213 87 210 266 266 266 505> 672 54<421 543>
VStem: 210 55<381 381> 637 55<542.5 578>
LayerCount: 2
Back
Fore
SplineSet
614 155 m 1
 666 148 l 1
 618 7 518 -10 473 -10 c 0
 421 -10 367 11 323 52 c 0
 308 66 289 71 269 71 c 0
 245 71 178 55 112 0 c 1
 85 41 l 1
 196 117 216 199 216 269 c 0
 216 286 215 305 213 328 c 1
 87 328 l 1
 108 381 l 1
 210 381 l 1
 223 609 332 726 510 726 c 0
 657 726 692 623 692 548 c 0
 692 537 691 526 690 517 c 1
 636 513 l 1
 637 521 637 528 637 536 c 0
 637 620 595 672 491 672 c 0
 324 672 270 529 265 381 c 1
 526 381 l 1
 505 328 l 1
 266 328 l 1
 268 303 268 282 268 265 c 0
 268 201 259 170 226 117 c 1
 245 122 263 125 280 125 c 0
 313 125 342 114 364 94 c 0
 399 61 444 44 485 44 c 0
 545 44 589 81 614 155 c 1
EndSplineSet
EndChar
StartChar: currency
Encoding: 164 164 119
Width: 500
Flags: MW
HStem: 52 21G<41 41> 91 51<199 231.5> 359 51<265 297> 434 20G<126 126 455 455>
VStem: 84 52<207 241.5> 358 52<261.5 295 261.5 298.5>
LayerCount: 2
Back
Fore
SplineSet
410 284 m 0
 410 239 391 197 358 159 c 1
 413 89 l 1
 370 53 l 1
 314 122 l 1
 284 103 249 91 214 91 c 0
 178 91 148 103 125 122 c 1
 41 52 l 1
 12 88 l 1
 98 159 l 1
 89 176 84 196 84 218 c 0
 84 265 106 311 139 345 c 1
 82 418 l 1
 126 454 l 1
 183 381 l 1
 214 400 248 410 282 410 c 0
 316 410 346 400 367 381 c 1
 455 454 l 1
 483 418 l 1
 396 345 l 1
 405 327 410 306 410 284 c 0
225 142 m 0
 292 142 358 204 358 274 c 0
 358 323 323 359 271 359 c 0
 204 359 136 298 136 228 c 0
 136 179 173 142 225 142 c 0
EndSplineSet
EndChar
StartChar: yen
Encoding: 165 165 80
Width: 585
Flags: MW
HStem: 0 21G<202 202> 134 54<101 230 80 241 295 423 101 284> 288 53<134 245 134 263 113 245 358 456> 669 20G<155 214 214 214 548 608 608 608>
LayerCount: 2
Back
Fore
SplineSet
263 288 m 1
 113 288 l 1
 134 341 l 1
 245 341 l 1
 155 689 l 1
 214 689 l 1
 303 348 l 1
 548 689 l 1
 608 689 l 1
 358 341 l 1
 477 341 l 1
 456 288 l 1
 317 288 l 1
 295 188 l 1
 444 188 l 1
 423 134 l 1
 284 134 l 1
 258 10 l 1
 202 0 l 1
 230 134 l 1
 80 134 l 1
 101 188 l 1
 241 188 l 1
 263 288 l 1
EndSplineSet
EndChar
StartChar: section
Encoding: 167 167 122
Width: 475
Flags: MW
HStem: 0 53<163.5 252.5> 594 50<302.5 362.5>
VStem: 112 52<343.5 375.5> 141 53<491 537 486.5 556> 337 54<154 178> 419 55<545.5 559>
LayerCount: 2
Back
Fore
SplineSet
421 318 m 0xdc
 421 282 407 249 382 218 c 1
 388 206 391 193 391 177 c 0
 391 96 318 0 187 0 c 0
 74 0 31 81 31 120 c 0
 31 123 31 126 32 129 c 2
 86 137 l 1
 93 82 141 53 186 53 c 0
 325 53 337 146 337 162 c 0
 337 194 314 216 238 241 c 0
 153 269 112 300 112 354 c 0xec
 112 397 131 429 155 452 c 1
 146 466 141 482 141 500 c 0
 141 612 266 644 339 644 c 0
 431 644 474 606 474 554 c 0
 474 537 467 517 463 507 c 1
 413 515 l 1
 414 520 419 533 419 544 c 0
 419 574 393 594 332 594 c 0
 254 594 194 564 194 510 c 0
 194 463 250 447 284 436 c 0
 360 410 421 389 421 318 c 0xdc
349 253 m 1
 366 276 367 294 367 306 c 0
 366 338 343 359 267 384 c 0
 235 394 209 406 190 419 c 1
 174 405 164 387 164 367 c 0
 164 320 220 304 255 293 c 0
 291 281 325 269 349 253 c 1
EndSplineSet
EndChar
StartChar: dieresis
Encoding: 168 168 123
Width: 500
Flags: MW
HStem: 571 21G<195 195 355 355> 643 20G<296 296 456 456>
LayerCount: 2
Back
Fore
SplineSet
296 663 m 1
 271 581 l 1
 195 571 l 1
 221 653 l 1
 296 663 l 1
456 663 m 1
 431 581 l 1
 355 571 l 1
 381 653 l 1
 456 663 l 1
EndSplineSet
EndChar
StartChar: copyright
Encoding: 169 169 68
Width: 576
Flags: MW
HStem: 236 46<250 346.5 250 351> 348 46<293 326.5> 545 46<320.5 360.5> 644 46<314.5 411>
VStem: 104 47<383.5 482.5 383.5 487.5> 203 47<432 449 432 486> 511 47<443 542>
LayerCount: 2
Back
Fore
SplineSet
283 236 m 0
 177 236 104 313 104 415 c 0
 104 560 242 690 379 690 c 0
 485 690 558 613 558 510 c 0
 558 365 419 236 283 236 c 0
369 644 m 0
 260 644 151 541 151 424 c 0
 151 343 208 282 292 282 c 0
 401 282 511 385 511 501 c 0
 511 583 453 644 369 644 c 0
298 348 m 0
 242 348 203 389 203 441 c 0
 203 531 280 591 361 591 c 0
 388 591 427 577 447 544 c 1
 405 515 l 1
 395 532 370 545 351 545 c 0
 252 545 250 449 250 449 c 1
 250 415 278 394 308 394 c 0
 353 394 381 414 402 447 c 1
 444 436 l 1
 411 376 355 348 298 348 c 0
EndSplineSet
EndChar
StartChar: ordfeminine
Encoding: 170 170 212
Width: 250
Flags: MW
HStem: 352 21G<218 218> 358 49<133.5 154> 628 49<191.5 239>
VStem: 46 51<448.5 502.5 448.5 512.5>
LayerCount: 2
Back
Fore
SplineSet
330 649 m 1x70
 270 362 l 1
 218 352 l 1xb0
 224 380 l 1
 193 365 166 358 142 358 c 0
 82 358 46 399 46 459 c 0
 46 566 140 677 238 677 c 0
 262 677 304 669 330 649 c 1x70
228 628 m 0
 155 628 97 538 97 467 c 0
 97 430 117 407 150 407 c 0x70
 182 407 220 428 236 438 c 1
 277 618 l 1
 258 624 250 628 228 628 c 0
EndSplineSet
EndChar
StartChar: guillemotleft
Encoding: 171 171 87
Width: 609
Flags: MW
HStem: 66 21G<236 236 441 441> 422 20G<333 333 538 538>
LayerCount: 2
Back
Fore
SplineSet
236 66 m 1
 70 252 l 1
 333 442 l 1
 360 402 l 1
 151 251 l 1
 280 106 l 1
 236 66 l 1
441 66 m 1
 275 252 l 1
 538 442 l 1
 565 402 l 1
 356 251 l 1
 485 106 l 1
 441 66 l 1
EndSplineSet
EndChar
StartChar: logicalnot
Encoding: 172 172 213
Width: 516
Flags: MW
HStem: 114 21G<364 364> 265 51<93 397 72 459>
LayerCount: 2
Back
Fore
SplineSet
364 114 m 1
 397 265 l 1
 72 265 l 1
 93 316 l 1
 459 316 l 1
 418 131 l 1
 364 114 l 1
EndSplineSet
EndChar
StartChar: uni00AD
Encoding: 173 173 130
Width: 442
Flags: MW
HStem: 227 54<85 356 64 377>
LayerCount: 2
Back
Fore
SplineSet
377 281 m 1
 356 227 l 1
 64 227 l 1
 85 281 l 1
 377 281 l 1
EndSplineSet
EndChar
StartChar: registered
Encoding: 174 174 79
Width: 576
Flags: MW
HStem: 236 46<250 346.5 250 351> 644 46<314.5 411>
VStem: 104 47<383.5 482.5 383.5 487.5> 413 47<517 530> 511 47<443 542>
LayerCount: 2
Back
Fore
SplineSet
283 236 m 0
 177 236 104 313 104 415 c 0
 104 560 242 690 379 690 c 0
 485 690 558 613 558 510 c 0
 558 365 419 236 283 236 c 0
369 644 m 0
 260 644 151 541 151 424 c 0
 151 343 208 282 292 282 c 0
 401 282 511 385 511 501 c 0
 511 583 453 644 369 644 c 0
344 447 m 1
 415 389 l 1
 377 355 l 1
 275 437 l 1
 248 365 l 1
 199 360 l 1
 275 562 l 2
 281 579 284 590 359 590 c 0
 425 590 460 568 460 533 c 0
 460 482 398 458 344 447 c 1
315 543 m 1
 294 485 l 1
 366 492 413 512 413 522 c 0
 413 538 376 544 343 544 c 0
 334 544 324 544 315 543 c 1
EndSplineSet
EndChar
StartChar: macron
Encoding: 175 175 215
Width: 500
Flags: MW
HStem: 587 54<210 440 188 462>
LayerCount: 2
Back
Fore
SplineSet
440 587 m 1
 188 587 l 1
 210 641 l 1
 462 641 l 1
 440 587 l 1
EndSplineSet
EndChar
StartChar: degree
Encoding: 176 176 70
Width: 267
Flags: MW
HStem: 500 56<177.5 219.5 177.5 225> 710 56<204.5 246.5>
VStem: 76 57<600 641.5 600 649> 291 57<624 665.5>
LayerCount: 2
Back
Fore
SplineSet
184 500 m 0
 120 500 76 546 76 606 c 0
 76 692 160 766 240 766 c 0
 303 766 348 721 348 661 c 0
 348 576 266 500 184 500 c 0
228 710 m 0
 181 710 133 666 133 617 c 0
 133 583 159 556 196 556 c 0
 243 556 291 600 291 648 c 0
 291 683 265 710 228 710 c 0
EndSplineSet
EndChar
StartChar: plusminus
Encoding: 177 177 216
Width: 435
Flags: MW
HStem: 0 52<12 322 33 301> 270 54<77 192 56 203 257 372 77 246> 436 20G<285 285>
LayerCount: 2
Back
Fore
SplineSet
394 324 m 1
 372 270 l 1
 246 270 l 1
 219 144 l 1
 163 134 l 1
 192 270 l 1
 56 270 l 1
 77 324 l 1
 203 324 l 1
 229 445 l 1
 285 456 l 1
 257 324 l 1
 394 324 l 1
12 0 m 1
 33 52 l 1
 322 52 l 1
 301 0 l 1
 12 0 l 1
EndSplineSet
EndChar
StartChar: twosuperior
Encoding: 178 178 217
Width: 237
Flags: MW
HStem: 439 45<96 267> 775 46<214.5 243.5>
VStem: 284 46<716.5 746.5>
LayerCount: 2
Back
Fore
SplineSet
129 718 m 1
 105 754 l 1
 135 789 188 821 239 821 c 0
 310 821 330 779 330 744 c 0
 330 677 254 622 194 588 c 0
 140 558 113 533 96 484 c 1
 284 484 l 1
 267 439 l 1
 41 439 l 1
 45 461 l 2
 60 544 102 581 177 625 c 0
 252 668 284 700 284 733 c 0
 284 760 258 775 229 775 c 0
 200 775 163 760 129 718 c 1
EndSplineSet
EndChar
StartChar: threesuperior
Encoding: 179 179 218
Width: 236
Flags: MW
HStem: 438 45<144.5 175 144.5 179.5> 627 44<169 172 163 185> 773 45<213.5 240>
VStem: 56 46<523 523> 256 46<535 588> 282 20 282 47<727 748>
LayerCount: 2
Back
Fore
SplineSet
143 738 m 1xf4
 119 771 l 1
 143 791 184 818 234 818 c 0
 291 818 329 787 329 746 c 0xf2
 329 708 302 674 264 653 c 1
 288 635 302 613 302 582 c 0
 302 477 202 438 157 438 c 0
 115 438 60 456 56 523 c 1
 102 541 l 1
 102 504 123 483 166 483 c 0
 184 483 256 498 256 572 c 0xf8
 256 604 231 627 172 627 c 2
 163 627 l 1
 169 671 l 1
 201 671 282 685 282 737 c 0
 282 759 255 773 225 773 c 0
 202 773 173 763 143 738 c 1xf4
EndSplineSet
EndChar
StartChar: acute
Encoding: 180 180 136
Width: 500
Flags: MW
HStem: 567 21G<254 254> 704 20G<397 397>
LayerCount: 2
Back
Fore
SplineSet
221 602 m 1
 397 724 l 1
 440 679 l 1
 254 567 l 1
 221 602 l 1
EndSplineSet
EndChar
StartChar: mu
Encoding: 181 181 220
Width: 515
Flags: MW
HStem: -174 21G<62 62> -5 49<150 199> 485 20G<188 188 502 502>
LayerCount: 2
Back
Fore
SplineSet
72 292 m 0
 89 374 120 464 131 495 c 1
 188 505 l 1
 128 367 104 175 104 124 c 0
 104 56 128 44 172 44 c 0
 241 44 322 93 348 117 c 0
 356 125 367 145 371 160 c 2
 447 495 l 1
 502 505 l 1
 397 11 l 1
 333 1 l 1
 348 75 l 1
 315 37 238 -5 160 -5 c 0
 131 -5 102 1 83 13 c 1
 62 -174 l 1
 9 -164 l 1
 11 -128 50 189 72 292 c 0
EndSplineSet
EndChar
StartChar: paragraph
Encoding: 182 182 106
Width: 559
Flags: MW
HStem: -80 21G<271 271> 765 20G<479 479>
LayerCount: 2
Back
Fore
SplineSet
457 729 m 1
 448 661 387 346 216 -75 c 1
 160 -79 l 1
 226 82 276 227 313 349 c 1
 230 349 110 362 110 480 c 0
 110 662 323 758 479 785 c 1
 477 732 l 2
 476 732 457 729 457 729 c 1
573 739 m 2
 571 737 523 399 329 -75 c 1
 271 -80 l 1
 465 387 518 730 518 735 c 1
 573 739 l 2
EndSplineSet
EndChar
StartChar: periodcentered
Encoding: 183 183 221
Width: 500
Flags: MW
HStem: 207 21G<197 197> 279 20G<299 299>
LayerCount: 2
Back
Fore
SplineSet
299 299 m 1
 274 217 l 1
 197 207 l 1
 224 289 l 1
 299 299 l 1
EndSplineSet
EndChar
StartChar: cedilla
Encoding: 184 184 140
Width: 500
Flags: MW
HStem: -201 42<143 166 143 170.5> -61 42<169 173 173 183.5> 9 20G<182 182>
VStem: 211 43<-115 -88>
LayerCount: 2
Back
Fore
SplineSet
182 29 m 1
 169 -19 l 1
 173 -19 l 2
 221 -19 254 -46 254 -89 c 0
 254 -148 199 -201 142 -201 c 0
 113 -201 90 -188 77 -166 c 1
 114 -136 l 1
 116 -149 135 -159 151 -159 c 0
 181 -159 211 -131 211 -99 c 0
 211 -77 195 -61 172 -61 c 0
 159 -61 143 -67 137 -72 c 1
 115 -42 l 1
 154 27 l 1
 182 29 l 1
EndSplineSet
EndChar
StartChar: onesuperior
Encoding: 185 185 219
Width: 179
Flags: MW
HStem: 454 46<50 129 69 129 175 212> 836 20G<255 255>
LayerCount: 2
Back
Fore
SplineSet
50 454 m 1
 69 500 l 1
 129 500 l 1
 186 752 l 1
 124 705 l 1
 102 739 l 1
 255 856 l 1
 175 500 l 1
 230 500 l 1
 212 454 l 1
 50 454 l 1
EndSplineSet
EndChar
StartChar: ordmasculine
Encoding: 186 186 222
Width: 285
Flags: MW
HStem: 356 46<144 191 144 198> 634 47<199.5 248.5>
VStem: 48 53<455 517.5 455 523.5> 292 53<514.5 574.5>
LayerCount: 2
Back
Fore
SplineSet
153 356 m 0
 85 356 48 405 48 468 c 0
 48 579 148 681 241 681 c 0
 304 681 345 630 345 565 c 0
 345 458 243 356 153 356 c 0
228 634 m 0
 171 634 101 558 101 477 c 0
 101 433 125 402 163 402 c 0
 219 402 292 476 292 553 c 0
 292 596 269 634 228 634 c 0
EndSplineSet
EndChar
StartChar: guillemotright
Encoding: 187 187 88
Width: 609
Flags: MW
HStem: 66 21G<88 88 292 292> 422 20G<149 149 354 354>
LayerCount: 2
Back
Fore
SplineSet
88 66 m 1
 59 106 l 1
 250 251 l 1
 106 402 l 1
 149 442 l 1
 332 252 l 1
 88 66 l 1
292 66 m 1
 264 106 l 1
 455 251 l 1
 311 402 l 1
 354 442 l 1
 537 252 l 1
 292 66 l 1
EndSplineSet
EndChar
StartChar: questiondown
Encoding: 191 191 115
Width: 501
Flags: MW
HStem: 0 54<125 219.5> 693 20G<421 421>
VStem: -17 54<139.5 222.5 139.5 227.5>
LayerCount: 2
Back
Fore
SplineSet
338 621 m 1
 363 703 l 1
 421 713 l 1
 397 631 l 1
 338 621 l 1
166 0 m 0
 52 0 -17 62 -17 158 c 0
 -17 297 102 373 169 424 c 2
 345 556 l 1
 361 508 l 1
 192 381 l 2
 129 334 37 275 37 170 c 0
 37 109 73 54 177 54 c 0
 272 54 344 141 353 152 c 1
 384 113 l 1
 355 80 273 0 166 0 c 0
EndSplineSet
EndChar
StartChar: Agrave
Encoding: 192 192 226
Width: 623
Flags: MW
HStem: 0 21G<44 44> 880 20G<426 426>
LayerCount: 2
Back
Fore
SplineSet
449 680 m 1
 525 33 l 1
 471 1 l 1
 440 261 l 1
 164 206 l 1
 44 0 l 1
 0 26 l 1
 97 192 l 1
 55 184 l 1
 55 238 l 1
 133 253 l 1
 376 667 l 1
 449 680 l 1
200 267 m 1
 434 313 l 1
 400 607 l 1
 200 267 l 1
521 754 m 1
 469 726 l 1
 359 866 l 1
 426 900 l 1
 521 754 l 1
EndSplineSet
EndChar
StartChar: Aacute
Encoding: 193 193 149
Width: 623
Flags: MW
HStem: 0 21G<44 44> 873 20G<510 510>
LayerCount: 2
Back
Fore
SplineSet
449 680 m 1
 525 33 l 1
 471 1 l 1
 440 261 l 1
 164 206 l 1
 44 0 l 1
 0 26 l 1
 97 192 l 1
 55 184 l 1
 55 238 l 1
 133 253 l 1
 376 667 l 1
 449 680 l 1
200 267 m 1
 434 313 l 1
 400 607 l 1
 200 267 l 1
334 771 m 1
 510 893 l 1
 553 848 l 1
 367 736 l 1
 334 771 l 1
EndSplineSet
EndChar
StartChar: Acircumflex
Encoding: 194 194 150
Width: 623
Flags: MW
HStem: 0 21G<44 44> 861 20G<467 467>
LayerCount: 2
Back
Fore
SplineSet
449 680 m 1
 525 33 l 1
 471 1 l 1
 440 261 l 1
 164 206 l 1
 44 0 l 1
 0 26 l 1
 97 192 l 1
 55 184 l 1
 55 238 l 1
 133 253 l 1
 376 667 l 1
 449 680 l 1
200 267 m 1
 434 313 l 1
 400 607 l 1
 200 267 l 1
315 718 m 1
 291 760 l 1
 467 881 l 1
 570 759 l 1
 525 719 l 1
 448 806 l 1
 315 718 l 1
EndSplineSet
EndChar
StartChar: Atilde
Encoding: 195 195 227
Width: 623
Flags: MW
HStem: 0 21G<44 44> 721 41<488.5 511.5 488.5 512.5> 829 41<358.5 381>
LayerCount: 2
Back
Fore
SplineSet
449 680 m 1
 525 33 l 1
 471 1 l 1
 440 261 l 1
 164 206 l 1
 44 0 l 1
 0 26 l 1
 97 192 l 1
 55 184 l 1
 55 238 l 1
 133 253 l 1
 376 667 l 1
 449 680 l 1
200 267 m 1
 434 313 l 1
 400 607 l 1
 200 267 l 1
495 762 m 0
 528 762 564 824 579 853 c 1
 624 837 l 1
 596 772 538 721 487 721 c 0
 439 721 420 758 406 789 c 0
 396 811 388 829 374 829 c 0
 343 829 306 770 295 745 c 1
 250 763 l 1
 276 813 321 870 382 870 c 0
 436 870 453 826 467 794 c 0
 475 776 482 762 495 762 c 0
EndSplineSet
EndChar
StartChar: Adieresis
Encoding: 196 196 152
Width: 623
Flags: MW
HStem: 0 21G<44 44> 799 20G<411 411 572 572>
LayerCount: 2
Back
Fore
SplineSet
449 680 m 1
 525 33 l 1
 471 1 l 1
 440 261 l 1
 164 206 l 1
 44 0 l 1
 0 26 l 1
 97 192 l 1
 55 184 l 1
 55 238 l 1
 133 253 l 1
 376 667 l 1
 449 680 l 1
200 267 m 1
 434 313 l 1
 400 607 l 1
 200 267 l 1
411 819 m 1
 385 737 l 1
 309 727 l 1
 335 809 l 1
 411 819 l 1
572 819 m 1
 546 737 l 1
 470 727 l 1
 496 809 l 1
 572 819 l 1
EndSplineSet
EndChar
StartChar: Aring
Encoding: 197 197 228
Width: 623
Flags: MW
HStem: 0 21G<44 44> 721 46<403.5 443> 893 47<445 481.5>
VStem: 315 43<799 838.5 799 839.5> 528 42<822 857.5>
LayerCount: 2
Back
Fore
SplineSet
410 721 m 0
 351 721 315 757 315 804 c 0
 315 875 396 940 476 940 c 0
 537 940 570 900 570 856 c 0
 570 770 476 721 410 721 c 0
463 893 m 0
 427 893 358 864 358 813 c 0
 358 785 385 767 422 767 c 0
 467 767 528 800 528 844 c 0
 528 871 500 893 463 893 c 0
449 680 m 1
 525 33 l 1
 471 1 l 1
 440 261 l 1
 164 206 l 1
 44 0 l 1
 0 26 l 1
 97 192 l 1
 55 184 l 1
 55 238 l 1
 133 253 l 1
 376 667 l 1
 449 680 l 1
200 267 m 1
 434 313 l 1
 400 607 l 1
 200 267 l 1
EndSplineSet
EndChar
StartChar: AE
Encoding: 198 198 229
Width: 1049
Flags: MW
HStem: 0 56<515 914> 326 56<585 941 573 970> 625 56<636 1051 636 636>
LayerCount: 2
Back
Fore
SplineSet
515 56 m 1
 945 56 l 1
 914 0 l 1
 448 0 l 1
 513 307 l 1
 282 261 l 1
 43 0 l 1
 0 26 l 1
 202 246 l 1
 161 237 l 1
 161 290 l 1
 261 310 l 1
 602 681 l 1
 1073 681 l 1
 1051 625 l 1
 636 625 l 1
 585 382 l 1
 970 382 l 1
 941 326 l 1
 573 326 l 1
 515 56 l 1
524 362 m 1
 569 572 l 1
 343 326 l 1
 524 362 l 1
EndSplineSet
EndChar
StartChar: Ccedilla
Encoding: 199 199 155
Width: 631
Flags: MW
HStem: -201 42<247 270 247 274.5> -61 42<273 277 277 287.5> -1 53<277 329> 628 53<340 458.5>
VStem: 50 54<187.5 303.5 187.5 305> 315 43<-115 -88>
LayerCount: 2
Back
Fore
SplineSet
255 -159 m 0
 285 -159 315 -131 315 -99 c 0
 315 -77 299 -61 276 -61 c 0
 263 -61 247 -67 241 -72 c 1
 219 -42 l 1
 243 1 l 1
 127 15 50 105 50 227 c 0
 50 383 229 681 435 681 c 0
 491 681 539 665 572 635 c 1
 577 658 l 1
 623 658 l 1
 598 539 l 1
 552 539 l 1
 557 564 l 1
 537 594 499 628 418 628 c 0
 262 628 104 366 104 241 c 0
 104 134 179 52 290 52 c 0
 384 52 467 94 523 170 c 1
 553 131 l 1
 486 49 381 -1 277 -1 c 1
 273 -19 l 1
 277 -19 l 2
 325 -19 358 -46 358 -89 c 0
 358 -148 303 -201 246 -201 c 0
 217 -201 194 -188 181 -166 c 1
 218 -136 l 1
 220 -149 239 -159 255 -159 c 0
EndSplineSet
EndChar
StartChar: Egrave
Encoding: 200 200 230
Width: 611
Flags: MW
HStem: 0 56<77 476> 326 56<147 503 135 532> 625 56<198 613 198 198> 880 20G<385 385>
LayerCount: 2
Back
Fore
SplineSet
77 56 m 1
 507 56 l 1
 476 0 l 1
 10 0 l 1
 154 681 l 1
 635 681 l 1
 613 625 l 1
 198 625 l 1
 147 382 l 1
 532 382 l 1
 503 326 l 1
 135 326 l 1
 77 56 l 1
480 754 m 1
 428 726 l 1
 318 866 l 1
 385 900 l 1
 480 754 l 1
EndSplineSet
EndChar
StartChar: Eacute
Encoding: 201 201 157
Width: 611
Flags: MW
HStem: 0 56<77 476> 326 56<147 503 135 532> 625 56<198 613 198 198> 873 20G<482 482>
LayerCount: 2
Back
Fore
SplineSet
77 56 m 1
 507 56 l 1
 476 0 l 1
 10 0 l 1
 154 681 l 1
 635 681 l 1
 613 625 l 1
 198 625 l 1
 147 382 l 1
 532 382 l 1
 503 326 l 1
 135 326 l 1
 77 56 l 1
306 771 m 1
 482 893 l 1
 526 848 l 1
 340 736 l 1
 306 771 l 1
EndSplineSet
EndChar
StartChar: Ecircumflex
Encoding: 202 202 231
Width: 611
Flags: MW
HStem: 0 56<77 476> 326 56<147 503 135 532> 625 56<198 613 198 198> 861 20G<449 449>
LayerCount: 2
Back
Fore
SplineSet
77 56 m 1
 507 56 l 1
 476 0 l 1
 10 0 l 1
 154 681 l 1
 635 681 l 1
 613 625 l 1
 198 625 l 1
 147 382 l 1
 532 382 l 1
 503 326 l 1
 135 326 l 1
 77 56 l 1
297 718 m 1
 273 760 l 1
 449 881 l 1
 552 759 l 1
 507 719 l 1
 430 806 l 1
 297 718 l 1
EndSplineSet
EndChar
StartChar: Edieresis
Encoding: 203 203 159
Width: 611
Flags: MW
HStem: 0 56<77 476> 326 56<147 503 135 532> 625 56<198 613 198 198> 799 20G<390 390 551 551>
LayerCount: 2
Back
Fore
SplineSet
77 56 m 1
 507 56 l 1
 476 0 l 1
 10 0 l 1
 154 681 l 1
 635 681 l 1
 613 625 l 1
 198 625 l 1
 147 382 l 1
 532 382 l 1
 503 326 l 1
 135 326 l 1
 77 56 l 1
390 819 m 1
 364 737 l 1
 288 727 l 1
 314 809 l 1
 390 819 l 1
551 819 m 1
 525 737 l 1
 449 727 l 1
 475 809 l 1
 551 819 l 1
EndSplineSet
EndChar
StartChar: Igrave
Encoding: 204 204 232
Width: 437
Flags: MW
HStem: 0 56<26 149 205 312 5 149> 625 56<159 270 137 466 326 444 326 326> 880 20G<314 314>
LayerCount: 2
Back
Fore
SplineSet
444 625 m 1
 326 625 l 1
 205 56 l 1
 333 56 l 1
 312 0 l 1
 5 0 l 1
 26 56 l 1
 149 56 l 1
 270 625 l 1
 137 625 l 1
 159 681 l 1
 466 681 l 1
 444 625 l 1
409 754 m 1
 357 726 l 1
 247 866 l 1
 314 900 l 1
 409 754 l 1
EndSplineSet
EndChar
StartChar: Iacute
Encoding: 205 205 161
Width: 437
Flags: MW
HStem: 0 56<26 149 205 312 5 149> 625 56<159 270 137 466 326 444 326 326> 873 20G<408 408>
LayerCount: 2
Back
Fore
SplineSet
444 625 m 1
 326 625 l 1
 205 56 l 1
 333 56 l 1
 312 0 l 1
 5 0 l 1
 26 56 l 1
 149 56 l 1
 270 625 l 1
 137 625 l 1
 159 681 l 1
 466 681 l 1
 444 625 l 1
232 771 m 1
 408 893 l 1
 452 848 l 1
 266 736 l 1
 232 771 l 1
EndSplineSet
EndChar
StartChar: Icircumflex
Encoding: 206 206 162
Width: 437
Flags: MW
HStem: 0 56<26 149 205 312 5 149> 625 56<159 270 137 466 326 444 326 326> 861 20G<363 363>
LayerCount: 2
Back
Fore
SplineSet
444 625 m 1
 326 625 l 1
 205 56 l 1
 333 56 l 1
 312 0 l 1
 5 0 l 1
 26 56 l 1
 149 56 l 1
 270 625 l 1
 137 625 l 1
 159 681 l 1
 466 681 l 1
 444 625 l 1
211 718 m 1
 187 760 l 1
 363 881 l 1
 466 759 l 1
 421 719 l 1
 344 806 l 1
 211 718 l 1
EndSplineSet
EndChar
StartChar: Idieresis
Encoding: 207 207 233
Width: 437
Flags: MW
HStem: 0 56<26 149 205 312 5 149> 625 56<159 270 137 466 326 444 326 326> 799 20G<304 304 465 465>
LayerCount: 2
Back
Fore
SplineSet
444 625 m 1
 326 625 l 1
 205 56 l 1
 333 56 l 1
 312 0 l 1
 5 0 l 1
 26 56 l 1
 149 56 l 1
 270 625 l 1
 137 625 l 1
 159 681 l 1
 466 681 l 1
 444 625 l 1
304 819 m 1
 278 737 l 1
 202 727 l 1
 228 809 l 1
 304 819 l 1
465 819 m 1
 439 737 l 1
 363 727 l 1
 389 809 l 1
 465 819 l 1
EndSplineSet
EndChar
StartChar: Eth
Encoding: 208 208 234
Width: 676
Flags: MW
HStem: -15 54<201.5 247 201.5 334.5> 291 59<55 131 32 144 55 185 198 285> 660 20G<214 240 240 381.5>
VStem: 579 55<312.5 425>
LayerCount: 2
Back
Fore
SplineSet
70 1 m 1
 131 291 l 1
 32 291 l 1
 55 350 l 1
 144 350 l 1
 214 680 l 1
 240 680 l 2
 523 680 634 542 634 390 c 0
 634 141 461 -15 208 -15 c 0
 170 -15 107 -10 70 1 c 1
285 291 m 1
 185 291 l 1
 133 45 l 1
 151 42 183 39 220 39 c 0
 274 39 355 47 425 86 c 0
 515 137 579 245 579 380 c 0
 579 470 539 537 459 579 c 0
 386 617 298 626 257 627 c 1
 198 350 l 1
 308 350 l 1
 285 291 l 1
EndSplineSet
EndChar
StartChar: Ntilde
Encoding: 209 209 235
Width: 615
Flags: MW
HStem: 0 21G<431 431> 721 41<478.5 501.5 478.5 502.5> 829 41<348.5 371>
LayerCount: 2
Back
Fore
SplineSet
584 671 m 1
 639 681 l 1
 497 13 l 1
 431 0 l 1
 188 588 l 1
 66 12 l 1
 11 1 l 1
 151 664 l 1
 213 681 l 1
 460 88 l 1
 584 671 l 1
485 762 m 0
 518 762 554 824 569 853 c 1
 614 837 l 1
 586 772 528 721 477 721 c 0
 429 721 410 758 396 789 c 0
 386 811 378 829 364 829 c 0
 333 829 296 770 285 745 c 1
 240 763 l 1
 266 813 311 870 372 870 c 0
 426 870 443 826 457 794 c 0
 465 776 472 762 485 762 c 0
EndSplineSet
EndChar
StartChar: Ograve
Encoding: 210 210 236
Width: 660
Flags: MW
HStem: 0 52<218 333.5 218 341> 632 52<356 472> 880 20G<443 443>
VStem: 62 54<186.5 345 186.5 348.5> 576 56<336 488.5>
LayerCount: 2
Back
Fore
SplineSet
538 754 m 1
 486 726 l 1
 376 866 l 1
 443 900 l 1
 538 754 l 1
254 0 m 0
 133 0 62 100 62 232 c 0
 62 465 267 684 441 684 c 0
 561 684 632 585 632 453 c 0
 632 219 428 0 254 0 c 0
423 632 m 0
 289 632 116 449 116 241 c 0
 116 132 171 52 265 52 c 0
 402 52 576 236 576 435 c 0
 576 542 521 632 423 632 c 0
EndSplineSet
EndChar
StartChar: Oacute
Encoding: 211 211 167
Width: 660
Flags: MW
HStem: 0 52<218 333.5 218 341> 632 52<356 472> 873 20G<546 546>
VStem: 62 54<186.5 345 186.5 348.5> 576 56<336 488.5>
LayerCount: 2
Back
Fore
SplineSet
370 771 m 1
 546 893 l 1
 590 848 l 1
 404 736 l 1
 370 771 l 1
254 0 m 0
 133 0 62 100 62 232 c 0
 62 465 267 684 441 684 c 0
 561 684 632 585 632 453 c 0
 632 219 428 0 254 0 c 0
423 632 m 0
 289 632 116 449 116 241 c 0
 116 132 171 52 265 52 c 0
 402 52 576 236 576 435 c 0
 576 542 521 632 423 632 c 0
EndSplineSet
EndChar
StartChar: Ocircumflex
Encoding: 212 212 168
Width: 660
Flags: MW
HStem: 0 52<218 333.5 218 341> 632 52<356 472> 861 20G<500 500>
VStem: 62 54<186.5 345 186.5 348.5> 576 56<336 488.5>
LayerCount: 2
Back
Fore
SplineSet
347 718 m 1
 323 760 l 1
 500 881 l 1
 603 759 l 1
 558 719 l 1
 481 806 l 1
 347 718 l 1
254 0 m 0
 133 0 62 100 62 232 c 0
 62 465 267 684 441 684 c 0
 561 684 632 585 632 453 c 0
 632 219 428 0 254 0 c 0
423 632 m 0
 289 632 116 449 116 241 c 0
 116 132 171 52 265 52 c 0
 402 52 576 236 576 435 c 0
 576 542 521 632 423 632 c 0
EndSplineSet
EndChar
StartChar: Otilde
Encoding: 213 213 237
Width: 660
Flags: MW
HStem: 0 52<218 333.5 218 341> 632 52<356 472> 721 41<518.5 541.5 518.5 542.5> 829 41<388.5 411>
VStem: 62 54<186.5 345 186.5 348.5> 576 56<336 488.5>
LayerCount: 2
Back
Fore
SplineSet
254 0 m 0
 133 0 62 100 62 232 c 0
 62 465 267 684 441 684 c 0
 561 684 632 585 632 453 c 0
 632 219 428 0 254 0 c 0
423 632 m 0
 289 632 116 449 116 241 c 0
 116 132 171 52 265 52 c 0
 402 52 576 236 576 435 c 0
 576 542 521 632 423 632 c 0
525 762 m 0
 558 762 594 824 609 853 c 1
 654 837 l 1
 626 772 568 721 517 721 c 0
 469 721 450 758 436 789 c 0
 426 811 418 829 404 829 c 0
 373 829 336 770 325 745 c 1
 280 763 l 1
 306 813 351 870 412 870 c 0
 466 870 483 826 497 794 c 0
 505 776 512 762 525 762 c 0
EndSplineSet
EndChar
StartChar: Odieresis
Encoding: 214 214 170
Width: 660
Flags: MW
HStem: 0 52<218 333.5 218 341> 632 52<356 472> 799 20G<432 432 592 592>
VStem: 62 54<186.5 345 186.5 348.5> 576 56<336 488.5>
LayerCount: 2
Back
Fore
SplineSet
432 819 m 1
 406 737 l 1
 330 727 l 1
 356 809 l 1
 432 819 l 1
592 819 m 1
 566 737 l 1
 490 727 l 1
 516 809 l 1
 592 819 l 1
254 0 m 0
 133 0 62 100 62 232 c 0
 62 465 267 684 441 684 c 0
 561 684 632 585 632 453 c 0
 632 219 428 0 254 0 c 0
423 632 m 0
 289 632 116 449 116 241 c 0
 116 132 171 52 265 52 c 0
 402 52 576 236 576 435 c 0
 576 542 521 632 423 632 c 0
EndSplineSet
EndChar
StartChar: multiply
Encoding: 215 215 171
Width: 354
Flags: MW
HStem: 129 21G<63 63> 355 20G<287 287>
LayerCount: 2
Back
Fore
SplineSet
213 253 m 1
 279 168 l 1
 234 131 l 1
 168 215 l 1
 63 129 l 1
 34 166 l 1
 139 253 l 1
 78 331 l 1
 123 368 l 1
 184 290 l 1
 287 375 l 1
 316 338 l 1
 213 253 l 1
EndSplineSet
EndChar
StartChar: Oslash
Encoding: 216 216 238
Width: 660
Flags: MW
HStem: -33 21G<67 67> -1 52<244 341> 631 52<356 437.5> 721 20G<602 602>
VStem: 61 55<220 344 220 344.5> 576 56<362.5 459.5>
LayerCount: 2
Back
Fore
SplineSet
575 626 m 1
 615 585 632 522 632 455 c 0
 632 220 429 -1 253 -1 c 0
 205 -1 162 16 129 46 c 1
 67 -33 l 1
 28 -7 l 1
 98 84 l 1
 74 123 61 172 61 227 c 0
 61 462 266 683 441 683 c 0
 477 683 510 674 538 656 c 1
 602 741 l 1
 642 714 l 1
 575 626 l 1
137 134 m 1
 501 608 l 1
 478 623 452 631 423 631 c 0
 289 631 116 448 116 240 c 0
 116 200 123 164 137 134 c 1
264 51 m 0
 443 51 576 293 576 432 c 0
 576 487 562 538 536 575 c 1
 164 92 l 1
 190 65 224 51 264 51 c 0
EndSplineSet
EndChar
StartChar: Ugrave
Encoding: 217 217 239
Width: 684
Flags: MW
HStem: 0 49<234.5 399 234.5 414.5> 880 20G<449 449>
VStem: 77 56<182 285.5>
LayerCount: 2
Back
Fore
SplineSet
544 754 m 1
 492 726 l 1
 382 866 l 1
 449 900 l 1
 544 754 l 1
287 0 m 0
 128 0 77 88 77 225 c 0
 77 346 132 572 155 670 c 1
 214 680 l 1
 195 612 133 364 133 237 c 0
 133 127 172 49 297 49 c 0
 501 49 562 260 598 431 c 0
 616 514 640 634 647 669 c 1
 705 680 l 1
 700 656 679 550 664 476 c 0
 615 245 542 0 287 0 c 0
EndSplineSet
EndChar
StartChar: Ucircumflex
Encoding: 219 219 240
Width: 684
Flags: MW
HStem: 0 49<234.5 399 234.5 414.5> 861 20G<488 488>
VStem: 77 56<182 285.5>
LayerCount: 2
Back
Fore
SplineSet
287 0 m 0
 128 0 77 88 77 225 c 0
 77 346 132 572 155 670 c 1
 214 680 l 1
 195 612 133 364 133 237 c 0
 133 127 172 49 297 49 c 0
 501 49 562 260 598 431 c 0
 616 514 640 634 647 669 c 1
 705 680 l 1
 700 656 679 550 664 476 c 0
 615 245 542 0 287 0 c 0
336 718 m 1
 312 760 l 1
 488 881 l 1
 591 759 l 1
 546 719 l 1
 470 806 l 1
 336 718 l 1
EndSplineSet
EndChar
StartChar: Udieresis
Encoding: 220 220 176
Width: 684
Flags: MW
HStem: 0 49<234.5 399 234.5 414.5> 799 20G<432 432 592 592>
VStem: 77 56<182 285.5>
LayerCount: 2
Back
Fore
SplineSet
287 0 m 0
 128 0 77 88 77 225 c 0
 77 346 132 572 155 670 c 1
 214 680 l 1
 195 612 133 364 133 237 c 0
 133 127 172 49 297 49 c 0
 501 49 562 260 598 431 c 0
 616 514 640 634 647 669 c 1
 705 680 l 1
 700 656 679 550 664 476 c 0
 615 245 542 0 287 0 c 0
432 819 m 1
 406 737 l 1
 330 727 l 1
 356 809 l 1
 432 819 l 1
592 819 m 1
 566 737 l 1
 490 727 l 1
 516 809 l 1
 592 819 l 1
EndSplineSet
EndChar
StartChar: Thorn
Encoding: 222 222 241
Width: 506
Flags: MW
HStem: 0 21G<10 10> 143 59<93 106> 519 57<187 250.5 187 256> 666 20G<210 210>
VStem: 449 57<339 444.5>
LayerCount: 2
Back
Fore
SplineSet
153 674 m 1
 210 686 l 1
 187 576 l 1
 314 576 506 562 506 418 c 0
 506 207 242 152 93 143 c 1
 65 12 l 1
 10 0 l 1
 153 674 l 1
106 202 m 1
 292 210 449 277 449 401 c 0
 449 488 337 519 175 519 c 1
 106 202 l 1
EndSplineSet
EndChar
StartChar: germandbls
Encoding: 223 223 179
Width: 525
Flags: MW
HStem: -24 52<233 289 233 295.5> 588 52<283.5 340.5>
VStem: 403 54<482.5 525> 424 54<158.5 235.5>
LayerCount: 2
Back
Fore
SplineSet
379 361 m 1xe0
 440 339 478 285 478 216 c 0
 478 92 357 -24 234 -24 c 0
 201 -24 172 -16 130 10 c 1
 163 56 l 1
 199 34 221 28 245 28 c 0
 333 28 424 112 424 205 c 0xd0
 424 266 384 320 311 320 c 0
 303 320 294 319 231 310 c 1
 259 364 l 1
 368 379 403 447 403 500 c 0
 403 550 367 588 314 588 c 0
 253 588 193 538 180 477 c 2
 84 26 l 1
 27 0 l 1
 128 477 l 2
 147 567 236 640 326 640 c 0
 403 640 457 585 457 511 c 0
 457 454 426 400 379 361 c 1xe0
EndSplineSet
EndChar
StartChar: agrave
Encoding: 224 224 242
Width: 504
Flags: MW
HStem: 0 21G<328 328> 7 55<194 212> 458 55<256.5 351> 711 20G<317 317>
VStem: 35 59<148.5 206.5 148.5 237>
LayerCount: 2
Back
Fore
SplineSet
413 585 m 1x78
 361 557 l 1
 251 697 l 1
 317 731 l 1
 413 585 l 1x78
484 472 m 1
 386 11 l 1
 328 0 l 1xb8
 339 54 l 1
 300 33 240 7 184 7 c 0
 92 7 35 69 35 164 c 0
 35 310 172 513 341 513 c 0
 396 513 444 495 484 472 c 1
194 62 m 0x78
 254 62 325 103 351 120 c 1
 423 436 l 1
 406 444 368 458 334 458 c 0
 158 458 94 235 94 178 c 0
 94 119 119 63 194 62 c 0x78
EndSplineSet
EndChar
StartChar: aacute
Encoding: 225 225 181
Width: 504
Flags: MW
HStem: 0 21G<328 328> 7 55<194 212> 458 55<256.5 351> 704 20G<416 416>
VStem: 35 59<148.5 206.5 148.5 237>
LayerCount: 2
Back
Fore
SplineSet
484 472 m 1x78
 386 11 l 1
 328 0 l 1xb8
 339 54 l 1
 300 33 240 7 184 7 c 0
 92 7 35 69 35 164 c 0
 35 310 172 513 341 513 c 0
 396 513 444 495 484 472 c 1x78
194 62 m 0x78
 254 62 325 103 351 120 c 1
 423 436 l 1
 406 444 368 458 334 458 c 0
 158 458 94 235 94 178 c 0
 94 119 119 63 194 62 c 0x78
240 602 m 1
 416 724 l 1
 459 679 l 1
 273 567 l 1
 240 602 l 1
EndSplineSet
EndChar
StartChar: acircumflex
Encoding: 226 226 182
Width: 504
Flags: MW
HStem: 0 21G<328 328> 7 55<194 212> 458 55<256.5 351> 692 20G<388 388>
VStem: 35 59<148.5 206.5 148.5 237>
LayerCount: 2
Back
Fore
SplineSet
484 472 m 1x78
 386 11 l 1
 328 0 l 1xb8
 339 54 l 1
 300 33 240 7 184 7 c 0
 92 7 35 69 35 164 c 0
 35 310 172 513 341 513 c 0
 396 513 444 495 484 472 c 1x78
194 62 m 0x78
 254 62 325 103 351 120 c 1
 423 436 l 1
 406 444 368 458 334 458 c 0
 158 458 94 235 94 178 c 0
 94 119 119 63 194 62 c 0x78
235 549 m 1
 211 591 l 1
 388 712 l 1
 491 590 l 1
 446 550 l 1
 369 637 l 1
 235 549 l 1
EndSplineSet
EndChar
StartChar: atilde
Encoding: 227 227 243
Width: 513
Flags: MW
HStem: 0 21G<328 328> 7 55<194 212> 458 55<256.5 351> 556 41<399.5 422.5 399.5 423.5> 664 41<269.5 292>
VStem: 35 59<148.5 206.5 148.5 237>
LayerCount: 2
Back
Fore
SplineSet
484 472 m 1x7c
 386 11 l 1
 328 0 l 1xbc
 339 54 l 1
 300 33 240 7 184 7 c 0
 92 7 35 69 35 164 c 0
 35 310 172 513 341 513 c 0
 396 513 444 495 484 472 c 1x7c
194 62 m 0x7c
 254 62 325 103 351 120 c 1
 423 436 l 1
 406 444 368 458 334 458 c 0
 158 458 94 235 94 178 c 0
 94 119 119 63 194 62 c 0x7c
406 597 m 0
 439 597 475 659 490 688 c 1
 535 672 l 1
 507 607 449 556 398 556 c 0
 350 556 331 593 317 624 c 0
 307 646 299 664 285 664 c 0
 254 664 217 605 206 580 c 1
 161 598 l 1
 187 648 232 705 293 705 c 0
 347 705 364 661 378 629 c 0
 386 611 393 597 406 597 c 0
EndSplineSet
EndChar
StartChar: adieresis
Encoding: 228 228 184
Width: 504
Flags: MW
HStem: 0 21G<328 328> 7 55<194 212> 458 55<256.5 351> 643 20G<329 329 489 489>
VStem: 35 59<148.5 206.5 148.5 237>
LayerCount: 2
Back
Fore
SplineSet
484 472 m 1x78
 386 11 l 1
 328 0 l 1xb8
 339 54 l 1
 300 33 240 7 184 7 c 0
 92 7 35 69 35 164 c 0
 35 310 172 513 341 513 c 0
 396 513 444 495 484 472 c 1x78
194 62 m 0x78
 254 62 325 103 351 120 c 1
 423 436 l 1
 406 444 368 458 334 458 c 0
 158 458 94 235 94 178 c 0
 94 119 119 63 194 62 c 0x78
329 663 m 1
 304 581 l 1
 228 571 l 1
 254 653 l 1
 329 663 l 1
489 663 m 1
 464 581 l 1
 388 571 l 1
 414 653 l 1
 489 663 l 1
EndSplineSet
EndChar
StartChar: aring
Encoding: 229 229 244
Width: 504
Flags: MW
HStem: 0 21G<328 328> 7 55<194 212> 458 55<256.5 351> 563 47<324.5 358.5 324.5 364> 736 46<384 400>
VStem: 35 59<148.5 206.5 148.5 237> 234 43<640.5 672 640.5 683> 446 44<661 701.5>
LayerCount: 2
Back
Fore
SplineSet
328 563 m 0x7f
 267 563 234 603 234 647 c 0
 234 719 316 778 384 782 c 0
 442 782 490 754 490 701 c 0
 490 619 400 563 328 563 c 0x7f
383 736 m 0
 324 736 277 688 277 656 c 0
 277 625 309 610 340 610 c 0
 377 610 446 635 446 687 c 0
 446 716 417 736 383 736 c 0
484 472 m 1
 386 11 l 1
 328 0 l 1xbf
 339 54 l 1
 300 33 240 7 184 7 c 0
 92 7 35 69 35 164 c 0
 35 310 172 513 341 513 c 0
 396 513 444 495 484 472 c 1
194 62 m 0x7f
 254 62 325 103 351 120 c 1
 423 436 l 1
 406 444 368 458 334 458 c 0
 158 458 94 235 94 178 c 0
 94 119 119 63 194 62 c 0x7f
EndSplineSet
EndChar
StartChar: ae
Encoding: 230 230 245
Width: 864
Flags: MW
HStem: 0 21G<328 328 535.5 606.5> 7 44 458 44 493 20G<256.5 368.5>
VStem: 35 59<148.5 206.5 148.5 237>
LayerCount: 2
Back
Fore
SplineSet
574 0 m 0xa8
 497 0 435 37 404 95 c 1
 386 11 l 1
 328 0 l 1xa8
 339 54 l 1
 300 33 240 7 184 7 c 0
 92 7 35 69 35 164 c 0
 35 310 172 513 341 513 c 0x58
 396 513 444 495 484 472 c 1
 470 406 l 1
 526 464 602 502 680 502 c 0
 769 502 828 435 834 355 c 1
 438 159 l 1
 456 95 510 51 584 51 c 0x68
 635 51 688 72 733 111 c 1
 763 76 l 1
 706 27 639 0 574 0 c 0xa8
194 62 m 0
 254 62 325 103 351 120 c 1
 423 436 l 1
 406 444 368 458 334 458 c 0
 158 458 94 235 94 178 c 0
 94 119 119 63 194 62 c 0
670 451 m 0
 545 451 433 330 433 208 c 1
 773 378 l 1
 757 424 717 451 670 451 c 0
EndSplineSet
EndChar
StartChar: ccedilla
Encoding: 231 231 187
Width: 507
Flags: MW
HStem: -201 42<171 194 171 198.5> -61 42<197 201 201 211.5> 0 52<205 224 203 259.5> 450 52<254 339>
VStem: 36 54<130.5 217 126 225.5> 239 43<-115 -88>
LayerCount: 2
Back
Fore
SplineSet
179 -159 m 0
 209 -159 239 -131 239 -99 c 0
 239 -77 223 -61 200 -61 c 0
 187 -61 171 -67 165 -72 c 1
 143 -42 l 1
 170 5 l 1
 91 23 36 88 36 173 c 0
 36 278 166 502 325 502 c 0
 389 502 437 477 462 430 c 1
 414 391 l 1
 399 429 362 450 316 450 c 0
 192 450 90 258 90 176 c 0
 90 76 182 52 228 52 c 0
 291 52 353 87 391 137 c 1
 422 97 l 1
 373 41 300 3 224 0 c 2
 203 0 l 1
 197 -19 l 1
 201 -19 l 2
 249 -19 282 -46 282 -89 c 0
 282 -148 227 -201 170 -201 c 0
 141 -201 118 -188 105 -166 c 1
 142 -136 l 1
 144 -149 163 -159 179 -159 c 0
EndSplineSet
EndChar
StartChar: edieresis
Encoding: 235 235 191
Width: 527
Flags: MW
HStem: 0 51<210 269.5> 451 51<269.5 355.5> 643 20G<325 325 485 485>
VStem: 42 53<208 269 208 277>
LayerCount: 2
Back
Fore
SplineSet
237 0 m 0
 121 0 42 85 42 197 c 0
 42 357 191 502 343 502 c 0
 432 502 491 435 497 355 c 1
 101 159 l 1
 119 95 173 51 247 51 c 0
 298 51 351 72 396 111 c 1
 426 76 l 1
 369 27 302 0 237 0 c 0
332 451 m 0
 207 451 95 330 95 208 c 1
 435 378 l 1
 419 424 379 451 332 451 c 0
325 663 m 1
 300 581 l 1
 224 571 l 1
 250 653 l 1
 325 663 l 1
485 663 m 1
 460 581 l 1
 384 571 l 1
 410 653 l 1
 485 663 l 1
EndSplineSet
EndChar
StartChar: igrave
Encoding: 236 236 248
Width: 217
Flags: MW
HStem: 0 21G<22 22> 711 20G<161 161>
LayerCount: 2
Back
Fore
SplineSet
256 585 m 1
 204 557 l 1
 94 697 l 1
 161 731 l 1
 256 585 l 1
126 491 m 1
 187 500 l 1
 83 10 l 1
 22 0 l 1
 126 491 l 1
EndSplineSet
EndChar
StartChar: iacute
Encoding: 237 237 193
Width: 205
Flags: MW
HStem: 0 21G<10 10> 704 20G<272 272>
LayerCount: 2
Back
Fore
SplineSet
114 491 m 1
 175 500 l 1
 71 10 l 1
 10 0 l 1
 114 491 l 1
96 602 m 1
 272 724 l 1
 315 679 l 1
 129 567 l 1
 96 602 l 1
EndSplineSet
EndChar
StartChar: icircumflex
Encoding: 238 238 194
Width: 246
Flags: MW
HStem: 0 21G<43 43> 692 20G<240 240>
LayerCount: 2
Back
Fore
SplineSet
147 491 m 1
 208 500 l 1
 104 10 l 1
 43 0 l 1
 147 491 l 1
88 549 m 1
 64 591 l 1
 240 712 l 1
 343 590 l 1
 298 550 l 1
 221 637 l 1
 88 549 l 1
EndSplineSet
EndChar
StartChar: idieresis
Encoding: 239 239 249
Width: 246
Flags: MW
HStem: 0 21G<38 38> 643 20G<180 180 340 340>
LayerCount: 2
Back
Fore
SplineSet
142 491 m 1
 203 500 l 1
 99 10 l 1
 38 0 l 1
 142 491 l 1
180 663 m 1
 155 581 l 1
 79 571 l 1
 105 653 l 1
 180 663 l 1
340 663 m 1
 315 581 l 1
 239 571 l 1
 265 653 l 1
 340 663 l 1
EndSplineSet
EndChar
StartChar: eth
Encoding: 240 240 250
Width: 482
Flags: MW
HStem: 0 51<142.5 233.5 142.5 241> 385 50 654 20G<459 459>
VStem: 27 52<113.5 220> 386 52<257 325.5>
LayerCount: 2
Back
Fore
SplineSet
343 583 m 1
 394 513 438 422 438 323 c 0
 438 178 322 0 160 0 c 0
 80 0 27 52 27 133 c 0
 27 307 191 429 360 435 c 1
 342 482 316 524 293 557 c 1
 236 529 171 492 159 484 c 1
 148 520 l 1
 184 541 234 568 270 587 c 1
 253 608 236 627 232 630 c 1
 273 668 l 1
 283 660 304 635 322 613 c 1
 362 633 418 659 459 674 c 1
 465 638 l 1
 435 626 381 602 343 583 c 1
170 51 m 0
 297 51 386 201 386 313 c 0
 386 338 382 362 376 385 c 1
 228 385 79 299 79 142 c 0
 79 85 115 51 170 51 c 0
EndSplineSet
EndChar
StartChar: ntilde
Encoding: 241 241 251
Width: 536
Flags: MW
HStem: 0 21G<10 10 362 362> 446 55<343 388> 556 41<422.5 445.5 422.5 446.5> 664 41<292.5 315>
VStem: 426 56<353 396>
LayerCount: 2
Back
Fore
SplineSet
172 502 m 1
 129 297 l 1
 174 411 276 501 377 501 c 0
 447 501 482 462 482 383 c 0
 482 323 465 241 439 115 c 2
 418 12 l 1
 362 0 l 1
 385 114 l 2
 406 219 426 309 426 367 c 0
 426 425 411 446 365 446 c 0
 321 446 264 426 190 327 c 0
 144 265 104 182 89 112 c 2
 67 11 l 1
 10 0 l 1
 114 492 l 1
 172 502 l 1
429 597 m 0
 462 597 498 659 513 688 c 1
 558 672 l 1
 530 607 472 556 421 556 c 0
 373 556 354 593 340 624 c 0
 330 646 322 664 308 664 c 0
 277 664 240 605 229 580 c 1
 184 598 l 1
 210 648 255 705 316 705 c 0
 370 705 387 661 401 629 c 0
 409 611 416 597 429 597 c 0
EndSplineSet
EndChar
StartChar: ocircumflex
Encoding: 244 244 200
Width: 535
Flags: MW
HStem: 0 48<171 258 171 265.5> 452 48<266.5 354> 692 20G<395 395>
VStem: 37 58<143.5 249 143.5 259.5> 433 60<245 351>
LayerCount: 2
Back
Fore
SplineSet
243 549 m 1
 219 591 l 1
 395 712 l 1
 498 590 l 1
 453 550 l 1
 376 637 l 1
 243 549 l 1
197 0 m 0
 99 0 37 75 37 176 c 0
 37 343 195 500 334 500 c 0
 431 500 493 423 493 323 c 0
 493 154 334 0 197 0 c 0
319 452 m 0
 214 452 95 317 95 181 c 0
 95 106 135 48 207 48 c 0
 309 48 433 178 433 312 c 0
 433 390 389 452 319 452 c 0
EndSplineSet
EndChar
StartChar: otilde
Encoding: 245 245 253
Width: 535
Flags: MW
HStem: 0 48<171 258 171 265.5> 452 48<266.5 354> 556 41<419.5 442.5 419.5 443.5> 664 41<289.5 312>
VStem: 37 58<143.5 249 143.5 259.5> 433 60<245 351>
LayerCount: 2
Back
Fore
SplineSet
197 0 m 0
 99 0 37 75 37 176 c 0
 37 343 195 500 334 500 c 0
 431 500 493 423 493 323 c 0
 493 154 334 0 197 0 c 0
319 452 m 0
 214 452 95 317 95 181 c 0
 95 106 135 48 207 48 c 0
 309 48 433 178 433 312 c 0
 433 390 389 452 319 452 c 0
426 597 m 0
 459 597 495 659 510 688 c 1
 555 672 l 1
 527 607 469 556 418 556 c 0
 370 556 351 593 337 624 c 0
 327 646 319 664 305 664 c 0
 274 664 237 605 226 580 c 1
 181 598 l 1
 207 648 252 705 313 705 c 0
 367 705 384 661 398 629 c 0
 406 611 413 597 426 597 c 0
EndSplineSet
EndChar
StartChar: odieresis
Encoding: 246 246 202
Width: 535
Flags: MW
HStem: 0 48<171 258 171 265.5> 452 48<266.5 354> 643 20G<340 340 500 500>
VStem: 37 58<143.5 249 143.5 259.5> 433 60<245 351>
LayerCount: 2
Back
Fore
SplineSet
340 663 m 1
 315 581 l 1
 239 571 l 1
 265 653 l 1
 340 663 l 1
500 663 m 1
 475 581 l 1
 399 571 l 1
 425 653 l 1
 500 663 l 1
197 0 m 0
 99 0 37 75 37 176 c 0
 37 343 195 500 334 500 c 0
 431 500 493 423 493 323 c 0
 493 154 334 0 197 0 c 0
319 452 m 0
 214 452 95 317 95 181 c 0
 95 106 135 48 207 48 c 0
 309 48 433 178 433 312 c 0
 433 390 389 452 319 452 c 0
EndSplineSet
EndChar
StartChar: divide
Encoding: 247 247 203
Width: 407
Flags: MW
HStem: 132 21G<136 136> 234 52<48 358 69 337> 368 20G<269 269>
LayerCount: 2
Back
Fore
SplineSet
48 234 m 1
 69 286 l 1
 358 286 l 1
 337 234 l 1
 48 234 l 1
215 204 m 1
 195 140 l 1
 136 132 l 1
 156 196 l 1
 215 204 l 1
269 388 m 1
 249 324 l 1
 190 317 l 1
 210 380 l 1
 269 388 l 1
EndSplineSet
EndChar
StartChar: oslash
Encoding: 248 248 254
Width: 535
Flags: MW
HStem: -35 21G<60 60> 0 48<194.5 266.5> 452 48<267 329.5> 525 20G<463 463>
VStem: 37 58<168 250.5 168 258> 432 61<256 330>
LayerCount: 2
Back
Fore
SplineSet
448 451 m 1
 478 420 493 374 493 325 c 0
 493 155 336 0 197 0 c 0
 164 0 133 9 108 25 c 1
 60 -35 l 1
 22 -9 l 1
 74 56 l 1
 50 87 37 128 37 174 c 0
 37 342 194 500 334 500 c 0
 363 500 389 493 413 480 c 1
 463 545 l 1
 502 519 l 1
 448 451 l 1
112 104 m 1
 377 436 l 1
 359 446 340 452 319 452 c 0
 215 452 95 318 95 183 c 0
 95 153 101 126 112 104 c 1
207 48 m 0
 327 48 432 199 432 313 c 0
 432 347 424 378 409 402 c 1
 142 68 l 1
 160 55 182 48 207 48 c 0
EndSplineSet
EndChar
StartChar: ucircumflex
Encoding: 251 251 256
Width: 516
Flags: MW
HStem: -6 49<145.5 200> 692 20G<380 380>
VStem: 46 56<104.5 142.5>
LayerCount: 2
Back
Fore
SplineSet
126 289 m 0
 114 233 102 175 102 130 c 0
 102 79 118 43 173 43 c 0
 242 43 323 92 349 116 c 0
 359 124 366 138 371 159 c 2
 448 494 l 1
 503 504 l 1
 398 10 l 1
 334 0 l 1
 349 74 l 1
 316 36 239 -6 161 -6 c 0
 72 -6 46 46 46 117 c 0
 46 168 60 230 72 289 c 0
 81 334 105 426 132 494 c 1
 189 504 l 1
 182 488 144 374 126 289 c 0
227 549 m 1
 203 591 l 1
 380 712 l 1
 483 590 l 1
 438 550 l 1
 361 637 l 1
 227 549 l 1
EndSplineSet
EndChar
StartChar: yacute
Encoding: 253 253 209
Width: 500
Flags: MW
HStem: -198 21G<70 70> 704 20G<408 408>
LayerCount: 2
Back
Fore
SplineSet
480 499 m 1
 525 475 l 1
 70 -198 l 1
 25 -174 l 1
 183 60 l 1
 65 473 l 1
 120 498 l 1
 227 126 l 1
 480 499 l 1
232 602 m 1
 408 724 l 1
 452 679 l 1
 266 567 l 1
 232 602 l 1
EndSplineSet
EndChar
StartChar: thorn
Encoding: 254 254 258
Width: 528
Flags: MW
HStem: -185 21G<26 26> 0 54<178.5 276.5 178.5 296.5> 433 56<310.5 378.5> 671 20G<212 212>
VStem: 432 55<264 349>
LayerCount: 2
Back
Fore
SplineSet
351 489 m 0
 453 489 487 419 487 339 c 0
 487 189 389 0 204 0 c 0
 152 0 100 15 71 28 c 1
 26 -185 l 1
 -28 -175 l 1
 154 680 l 1
 212 691 l 1
 152 408 l 1
 193 452 270 489 351 489 c 0
207 54 m 0
 346 54 432 187 432 322 c 0
 432 376 413 433 344 433 c 0
 237 433 144 369 127 290 c 2
 83 81 l 1
 99 72 150 54 207 54 c 0
EndSplineSet
EndChar
StartChar: ydieresis
Encoding: 255 255 257
Width: 500
Flags: MW
HStem: -197 21G<71 71> 643 20G<302 302 462 462>
LayerCount: 2
Back
Fore
SplineSet
480 500 m 1
 526 476 l 1
 71 -197 l 1
 25 -173 l 1
 183 61 l 1
 65 474 l 1
 121 499 l 1
 227 127 l 1
 480 500 l 1
302 663 m 1
 277 581 l 1
 201 571 l 1
 227 653 l 1
 302 663 l 1
462 663 m 1
 437 581 l 1
 361 571 l 1
 387 653 l 1
 462 663 l 1
EndSplineSet
EndChar
StartChar: Abreve
Encoding: 258 258 151
Width: 623
Flags: MW
HStem: 0 21G<44 44> 739 46<428.5 468.5> 843 20G<574 574>
LayerCount: 2
Back
Fore
SplineSet
449 680 m 1
 525 33 l 1
 471 1 l 1
 440 261 l 1
 164 206 l 1
 44 0 l 1
 0 26 l 1
 97 192 l 1
 55 184 l 1
 55 238 l 1
 133 253 l 1
 376 667 l 1
 449 680 l 1
200 267 m 1
 434 313 l 1
 400 607 l 1
 200 267 l 1
447 785 m 0
 510 785 546 814 574 863 c 1
 598 832 l 1
 568 777 500 739 437 739 c 0
 367 739 316 775 303 828 c 1
 340 858 l 1
 361 797 410 785 447 785 c 0
EndSplineSet
EndChar
StartChar: abreve
Encoding: 259 259 183
Width: 504
Flags: MW
HStem: 0 21G<328 328> 7 55<194 212> 458 55<256.5 351> 559 46<340.5 379.5> 663 20G<486 486>
VStem: 35 59<148.5 206.5 148.5 237>
LayerCount: 2
Back
Fore
SplineSet
484 472 m 1x7c
 386 11 l 1
 328 0 l 1xbc
 339 54 l 1
 300 33 240 7 184 7 c 0
 92 7 35 69 35 164 c 0
 35 310 172 513 341 513 c 0
 396 513 444 495 484 472 c 1x7c
194 62 m 0x7c
 254 62 325 103 351 120 c 1
 423 436 l 1
 406 444 368 458 334 458 c 0
 158 458 94 235 94 178 c 0
 94 119 119 63 194 62 c 0x7c
359 605 m 0
 422 605 457 634 486 683 c 1
 510 652 l 1
 479 597 411 559 348 559 c 0
 278 559 228 595 215 648 c 1
 252 678 l 1
 273 617 322 605 359 605 c 0
EndSplineSet
EndChar
StartChar: Aogonek
Encoding: 260 260 116
Width: 637
Flags: MW
HStem: -201 43<437 463.5> 660 20G<449 449>
VStem: 359 43<-127 -91>
LayerCount: 2
Back
Fore
SplineSet
527 15 m 1
 485 -11 l 2
 456 -30 402 -63 402 -113 c 0
 402 -141 422 -158 452 -158 c 0
 484 -158 506 -145 533 -127 c 1
 550 -159 l 1
 528 -180 484 -201 443 -201 c 0
 392 -201 359 -169 359 -122 c 0
 359 -60 417 -5 468 24 c 1
 440 261 l 1
 164 206 l 1
 44 0 l 1
 0 26 l 1
 97 192 l 1
 55 184 l 1
 55 238 l 1
 133 253 l 1
 376 667 l 1
 449 680 l 1
 527 15 l 1
200 267 m 1
 434 313 l 1
 400 607 l 1
 200 267 l 1
EndSplineSet
EndChar
StartChar: aogonek
Encoding: 261 261 133
Width: 510
Flags: MW
HStem: -201 43<297 323.5> 7 55<193 211> 458 55<255.5 350>
VStem: 34 59<148.5 206.5 148.5 237> 219 43<-127 -90>
LayerCount: 2
Back
Fore
SplineSet
386 15 m 1
 345 -11 l 2
 317 -29 262 -63 262 -113 c 0
 262 -141 282 -158 312 -158 c 0
 344 -158 366 -145 393 -127 c 1
 410 -159 l 1
 388 -180 344 -201 303 -201 c 0
 252 -201 219 -169 219 -122 c 0
 219 -58 281 -4 332 26 c 1
 338 54 l 1
 299 33 239 7 183 7 c 0
 91 7 34 69 34 164 c 0
 34 310 171 513 340 513 c 0
 395 513 443 495 483 472 c 1
 386 15 l 1
193 62 m 0
 253 62 324 103 350 120 c 1
 422 436 l 1
 405 444 367 458 333 458 c 0
 157 458 93 235 93 178 c 0
 93 119 118 63 193 62 c 0
EndSplineSet
EndChar
StartChar: Dcaron
Encoding: 270 270 163
Width: 616
Flags: MW
HStem: -15 54<141.5 187 141.5 274.5> 861 20G<516 516>
VStem: 519 55<312.5 425>
LayerCount: 2
Back
Fore
SplineSet
516 881 m 1
 540 838 l 1
 364 718 l 1
 261 840 l 1
 306 880 l 1
 383 792 l 1
 516 881 l 1
10 1 m 1
 154 680 l 1
 180 680 l 2
 463 680 574 542 574 390 c 0
 574 141 401 -15 148 -15 c 0
 110 -15 47 -10 10 1 c 1
197 627 m 1
 73 45 l 1
 91 42 123 39 160 39 c 0
 214 39 295 47 365 86 c 0
 455 137 519 245 519 380 c 0
 519 470 479 537 399 579 c 0
 326 617 238 626 197 627 c 1
EndSplineSet
EndChar
StartChar: dcaron
Encoding: 271 271 195
Width: 609
Flags: MW
HStem: 0 21G<334 334> 6 49<143.5 206.5> 442 53<214.5 331.5> 677 20G<554 554>
VStem: 36 56<136.5 160>
LayerCount: 2
Back
Fore
SplineSet
655 691 m 1x78
 717 652 l 1
 589 486 l 1
 546 514 l 1
 620 610 l 1
 586 632 l 1
 655 691 l 1x78
495 687 m 1
 554 697 l 1
 392 10 l 1
 334 0 l 1xb8
 353 80 l 1
 311 48 246 6 167 6 c 0
 74 6 36 75 36 158 c 0
 36 162 48 495 320 495 c 0
 375 495 413 479 442 464 c 1
 495 687 l 1
372 162 m 2
 428 404 l 1
 412 414 361 442 302 442 c 0
 127 442 92 225 92 164 c 0
 92 109 110 55 177 55 c 0x78
 278 55 365 131 372 162 c 2
EndSplineSet
EndChar
StartChar: dcroat
Encoding: 273 273 196
Width: 550
Flags: MW
HStem: 0 21G<334 334> 6 49<143.5 206.5> 442 53<214.5 331.5> 553 52<386 463 365 475 532 611 386 519> 677 20G<554 554>
VStem: 36 56<136.5 160>
LayerCount: 2
Back
Fore
SplineSet
495 687 m 1x7c
 554 697 l 1
 532 605 l 1
 632 605 l 1
 611 553 l 1
 519 553 l 1
 392 10 l 1
 334 0 l 1xbc
 353 80 l 1
 311 48 246 6 167 6 c 0
 74 6 36 75 36 158 c 0
 36 162 48 495 320 495 c 0
 375 495 413 479 442 464 c 1
 463 553 l 1
 365 553 l 1
 386 605 l 1
 475 605 l 1
 495 687 l 1x7c
372 162 m 2
 428 404 l 1
 412 414 361 442 302 442 c 0
 127 442 92 225 92 164 c 0
 92 109 110 55 177 55 c 0x7c
 278 55 365 131 372 162 c 2
EndSplineSet
EndChar
StartChar: Eogonek
Encoding: 280 280 158
Width: 611
Flags: MW
HStem: -201 43<360 386.5> 0 56<77 356 426 426 426 476> 326 56<147 503 135 532> 625 56<198 613 198 198>
VStem: 282 43<-127 -98.5>
LayerCount: 2
Back
Fore
SplineSet
456 -127 m 1
 473 -159 l 1
 451 -180 407 -201 366 -201 c 0
 315 -201 282 -169 282 -122 c 0
 282 -75 316 -31 356 0 c 1
 10 0 l 1
 154 681 l 1
 635 681 l 1
 613 625 l 1
 198 625 l 1
 147 382 l 1
 532 382 l 1
 503 326 l 1
 135 326 l 1
 77 56 l 1
 507 56 l 1
 476 0 l 1
 426 0 l 1
 408 -11 l 2
 377 -30 325 -64 325 -113 c 0
 325 -141 345 -158 375 -158 c 0
 407 -158 429 -145 456 -127 c 1
EndSplineSet
EndChar
StartChar: eogonek
Encoding: 281 281 190
Width: 527
Flags: MW
HStem: -201 43<218 244.5> 451 51<269.5 355.5>
VStem: 42 53<208 269 208 276> 140 43<-127 -97.5>
LayerCount: 2
Back
Fore
SplineSet
314 -127 m 1
 331 -159 l 1
 309 -180 265 -201 224 -201 c 0
 173 -201 140 -169 140 -122 c 0
 140 -73 175 -30 215 1 c 1
 110 10 42 91 42 196 c 0
 42 356 191 502 343 502 c 0
 432 502 491 435 497 355 c 1
 101 159 l 1
 119 95 173 51 247 51 c 0
 298 51 351 72 396 111 c 1
 426 76 l 1
 400 50 357 31 314 11 c 0
 248 -20 183 -52 183 -113 c 0
 183 -141 203 -158 233 -158 c 0
 265 -158 287 -145 314 -127 c 1
332 451 m 0
 207 451 95 330 95 208 c 1
 435 378 l 1
 419 424 379 451 332 451 c 0
EndSplineSet
EndChar
StartChar: Ecaron
Encoding: 282 282 160
Width: 611
Flags: MW
HStem: 0 56<77 476> 326 56<147 503 135 532> 625 56<198 613 198 198> 861 20G<546 546>
LayerCount: 2
Back
Fore
SplineSet
77 56 m 1
 507 56 l 1
 476 0 l 1
 10 0 l 1
 154 681 l 1
 635 681 l 1
 613 625 l 1
 198 625 l 1
 147 382 l 1
 532 382 l 1
 503 326 l 1
 135 326 l 1
 77 56 l 1
546 881 m 1
 570 838 l 1
 393 718 l 1
 290 840 l 1
 335 880 l 1
 412 792 l 1
 546 881 l 1
EndSplineSet
EndChar
StartChar: ecaron
Encoding: 283 283 192
Width: 527
Flags: MW
HStem: 0 51<210 269.5> 451 51<269.5 355.5> 692 20G<489 489>
VStem: 42 53<208 269 208 277>
LayerCount: 2
Back
Fore
SplineSet
237 0 m 0
 121 0 42 85 42 197 c 0
 42 357 191 502 343 502 c 0
 432 502 491 435 497 355 c 1
 101 159 l 1
 119 95 173 51 247 51 c 0
 298 51 351 72 396 111 c 1
 426 76 l 1
 369 27 302 0 237 0 c 0
332 451 m 0
 207 451 95 330 95 208 c 1
 435 378 l 1
 419 424 379 451 332 451 c 0
489 712 m 1
 513 669 l 1
 336 549 l 1
 233 671 l 1
 278 711 l 1
 355 623 l 1
 489 712 l 1
EndSplineSet
EndChar
StartChar: Lacute
Encoding: 313 313 153
Width: 487
Flags: MW
HStem: 0 21G<10 10> 14 58 873 20G<397 397>
LayerCount: 2
Back
Fore
SplineSet
10 0 m 1
 151 668 l 1
 210 678 l 1
 78 60 l 1
 425 85 l 1
 417 29 l 1
 10 0 l 1
221 771 m 1
 397 893 l 1
 440 848 l 1
 254 736 l 1
 221 771 l 1
EndSplineSet
EndChar
StartChar: lacute
Encoding: 314 314 185
Width: 226
Flags: MW
HStem: 0 21G<30 30> 873 20G<324 324>
LayerCount: 2
Back
Fore
SplineSet
174 681 m 1
 233 692 l 1
 88 10 l 1
 30 0 l 1
 174 681 l 1
148 771 m 1
 324 893 l 1
 367 848 l 1
 181 736 l 1
 148 771 l 1
EndSplineSet
EndChar
StartChar: Lcaron
Encoding: 317 317 120
Width: 532
Flags: MW
HStem: 0 21G<55 55> 14 58 861 20G<443 443>
LayerCount: 2
Back
Fore
SplineSet
55 0 m 1
 196 668 l 1
 255 678 l 1
 123 60 l 1
 470 85 l 1
 462 29 l 1
 55 0 l 1
443 881 m 1
 467 838 l 1
 291 718 l 1
 188 840 l 1
 233 880 l 1
 310 792 l 1
 443 881 l 1
EndSplineSet
EndChar
StartChar: lcaron
Encoding: 318 318 137
Width: 290
Flags: MW
HStem: 0 21G<30 30> 674 20G<337 337>
LayerCount: 2
Back
Fore
SplineSet
174 681 m 1
 233 692 l 1
 88 10 l 1
 30 0 l 1
 174 681 l 1
337 694 m 1
 399 655 l 1
 270 489 l 1
 227 517 l 1
 302 613 l 1
 267 635 l 1
 337 694 l 1
EndSplineSet
EndChar
StartChar: Lslash
Encoding: 321 321 118
Width: 549
Flags: MW
HStem: 0 21G<72 72> 14 58 658 20G<272 272>
LayerCount: 2
Back
Fore
SplineSet
479 29 m 1x60
 72 0 l 1xa0
 134 295 l 1
 74 261 l 1
 52 308 l 1
 148 362 l 1
 213 668 l 1
 272 678 l 1
 212 397 l 1
 273 432 l 1
 294 384 l 1
 198 330 l 1
 140 60 l 1
 487 85 l 1
 479 29 l 1x60
EndSplineSet
EndChar
StartChar: lslash
Encoding: 322 322 135
Width: 266
Flags: MW
HStem: 0 21G<50 50> 672 20G<253 253>
LayerCount: 2
Back
Fore
SplineSet
272 384 m 1
 176 330 l 1
 108 10 l 1
 50 0 l 1
 112 294 l 1
 52 261 l 1
 30 308 l 1
 126 362 l 1
 194 681 l 1
 253 692 l 1
 190 397 l 1
 251 432 l 1
 272 384 l 1
EndSplineSet
EndChar
StartChar: Nacute
Encoding: 323 323 165
Width: 615
Flags: MW
HStem: 0 21G<431 431> 873 20G<491 491>
LayerCount: 2
Back
Fore
SplineSet
584 671 m 1
 639 681 l 1
 497 13 l 1
 431 0 l 1
 188 588 l 1
 66 12 l 1
 11 1 l 1
 151 664 l 1
 213 681 l 1
 460 88 l 1
 584 671 l 1
315 771 m 1
 491 893 l 1
 535 848 l 1
 349 736 l 1
 315 771 l 1
EndSplineSet
EndChar
StartChar: nacute
Encoding: 324 324 197
Width: 536
Flags: MW
HStem: 0 21G<10 10 362 362> 446 55<343 388> 704 20G<450 450>
VStem: 426 56<353 396>
LayerCount: 2
Back
Fore
SplineSet
172 502 m 1
 129 297 l 1
 174 411 276 501 377 501 c 0
 447 501 482 462 482 383 c 0
 482 323 465 241 439 115 c 2
 418 12 l 1
 362 0 l 1
 385 114 l 2
 406 219 426 309 426 367 c 0
 426 425 411 446 365 446 c 0
 321 446 264 426 190 327 c 0
 144 265 104 182 89 112 c 2
 67 11 l 1
 10 0 l 1
 114 492 l 1
 172 502 l 1
274 602 m 1
 450 724 l 1
 493 679 l 1
 307 567 l 1
 274 602 l 1
EndSplineSet
EndChar
StartChar: Ncaron
Encoding: 327 327 166
Width: 615
Flags: MW
HStem: 0 21G<431 431> 861 20G<557 557>
LayerCount: 2
Back
Fore
SplineSet
584 671 m 1
 639 681 l 1
 497 13 l 1
 431 0 l 1
 188 588 l 1
 66 12 l 1
 11 1 l 1
 151 664 l 1
 213 681 l 1
 460 88 l 1
 584 671 l 1
557 881 m 1
 581 838 l 1
 404 718 l 1
 301 840 l 1
 346 880 l 1
 423 792 l 1
 557 881 l 1
EndSplineSet
EndChar
StartChar: ncaron
Encoding: 328 328 198
Width: 536
Flags: MW
HStem: 0 21G<10 10 362 362> 446 55<343 388> 692 20G<499 499>
VStem: 426 56<353 396>
LayerCount: 2
Back
Fore
SplineSet
172 502 m 1
 129 297 l 1
 174 411 276 501 377 501 c 0
 447 501 482 462 482 383 c 0
 482 323 465 241 439 115 c 2
 418 12 l 1
 362 0 l 1
 385 114 l 2
 406 219 426 309 426 367 c 0
 426 425 411 446 365 446 c 0
 321 446 264 426 190 327 c 0
 144 265 104 182 89 112 c 2
 67 11 l 1
 10 0 l 1
 114 492 l 1
 172 502 l 1
499 712 m 1
 523 669 l 1
 346 549 l 1
 243 671 l 1
 288 711 l 1
 365 623 l 1
 499 712 l 1
EndSplineSet
EndChar
StartChar: Ohungarumlaut
Encoding: 336 336 169
Width: 660
Flags: MW
HStem: 0 52<218 333.5 218 341> 632 52<356 472> 873 20G<457 457 617 617>
VStem: 62 54<186.5 345 186.5 348.5> 576 56<336 488.5>
LayerCount: 2
Back
Fore
SplineSet
281 771 m 1
 457 893 l 1
 500 848 l 1
 314 736 l 1
 281 771 l 1
441 771 m 1
 617 893 l 1
 661 848 l 1
 474 736 l 1
 441 771 l 1
254 0 m 0
 133 0 62 100 62 232 c 0
 62 465 267 684 441 684 c 0
 561 684 632 585 632 453 c 0
 632 219 428 0 254 0 c 0
423 632 m 0
 289 632 116 449 116 241 c 0
 116 132 171 52 265 52 c 0
 402 52 576 236 576 435 c 0
 576 542 521 632 423 632 c 0
EndSplineSet
EndChar
StartChar: ohungarumlaut
Encoding: 337 337 201
Width: 555
Flags: MW
HStem: 0 48<171 258 171 265.5> 452 48<266.5 354> 704 20G<390 390 550 550>
VStem: 37 58<143.5 249 143.5 259.5> 433 60<245 351>
LayerCount: 2
Back
Fore
SplineSet
214 602 m 1
 390 724 l 1
 433 679 l 1
 247 567 l 1
 214 602 l 1
374 602 m 1
 550 724 l 1
 594 679 l 1
 408 567 l 1
 374 602 l 1
197 0 m 0
 99 0 37 75 37 176 c 0
 37 343 195 500 334 500 c 0
 431 500 493 423 493 323 c 0
 493 154 334 0 197 0 c 0
319 452 m 0
 214 452 95 317 95 181 c 0
 95 106 135 48 207 48 c 0
 309 48 433 178 433 312 c 0
 433 390 389 452 319 452 c 0
EndSplineSet
EndChar
StartChar: OE
Encoding: 338 338 223
Width: 1093
Flags: MW
HStem: 0 56<559 958> 326 56<629 985 617 1014> 625 56<680 1095 680 680> 664 20G<354 478.5>
VStem: 62 54<186.5 345 186.5 348.5>
LayerCount: 2
Back
Fore
SplineSet
559 56 m 1xe8
 989 56 l 1
 958 0 l 1
 492 0 l 1
 526 162 l 1
 452 65 350 0 254 0 c 0
 133 0 62 100 62 232 c 0
 62 465 267 684 441 684 c 0xd8
 516 684 586 641 612 567 c 1
 636 681 l 1
 1117 681 l 1
 1095 625 l 1
 680 625 l 1
 629 382 l 1
 1014 382 l 1
 985 326 l 1
 617 326 l 1
 559 56 l 1xe8
265 52 m 0
 433 52 576 276 576 435 c 0
 576 542 521 632 423 632 c 0
 289 632 116 449 116 241 c 0
 116 132 171 52 265 52 c 0
EndSplineSet
EndChar
StartChar: oe
Encoding: 339 339 224
Width: 911
Flags: MW
HStem: 0 51<594 653.5> 452 50
VStem: 37 58<143.5 249 143.5 259.5>
LayerCount: 2
Back
Fore
SplineSet
631 51 m 0
 682 51 735 72 780 111 c 1
 810 76 l 1
 753 27 686 0 621 0 c 0
 524 0 453 59 432 144 c 1
 374 59 284 0 197 0 c 0
 99 0 37 75 37 176 c 0
 37 343 195 500 334 500 c 0
 411 500 470 451 488 372 c 1
 545 448 635 502 727 502 c 0
 809 502 875 435 881 355 c 1
 881 355 604 218 485 159 c 1
 503 95 557 51 631 51 c 0
207 48 m 0
 325 48 433 199 433 312 c 0
 433 390 389 452 319 452 c 0
 214 452 95 317 95 181 c 0
 95 106 135 48 207 48 c 0
483 251 m 0
 480 236 479 222 479 208 c 1
 819 378 l 1
 803 424 763 451 716 451 c 0
 610 451 506 361 483 251 c 0
EndSplineSet
EndChar
StartChar: Racute
Encoding: 340 340 148
Width: 594
Flags: MW
HStem: 0 21G<10 10 446 446> 249 46 630 57<199 330 199 330> 873 20G<442 442>
VStem: 514 59<469 537.5>
LayerCount: 2
Back
Fore
SplineSet
115 237 m 1
 67 10 l 1
 10 0 l 1
 154 681 l 1
 177 683 231 687 265 687 c 0
 395 687 573 663 573 519 c 0
 573 419 486 318 338 275 c 1
 388 240 452 172 496 37 c 1
 446 0 l 1
 400 151 326 213 283 238 c 0
 269 246 242 249 221 249 c 0
 197 249 150 244 115 237 c 1
199 630 m 1
 128 295 l 1
 355 303 514 389 514 501 c 0
 514 574 450 630 241 630 c 2
 199 630 l 1
266 771 m 1
 442 893 l 1
 486 848 l 1
 299 736 l 1
 266 771 l 1
EndSplineSet
EndChar
StartChar: rcaron
Encoding: 345 345 204
Width: 402
Flags: MW
HStem: 0 21G<10 10> 447 55<303 337> 692 20G<439 439>
LayerCount: 2
Back
Fore
SplineSet
411 431 m 2
 402 389 l 1
 345 379 l 1
 352 412 l 2
 353 418 354 423 354 427 c 0
 354 439 348 447 326 447 c 0
 255 447 139 348 119 252 c 2
 68 10 l 1
 10 0 l 1
 114 492 l 1
 172 502 l 1
 145 376 l 1
 188 430 262 502 344 502 c 0
 386 502 412 477 412 444 c 0
 412 440 412 435 411 431 c 2
439 712 m 1
 463 669 l 1
 286 549 l 1
 183 671 l 1
 228 711 l 1
 305 623 l 1
 439 712 l 1
EndSplineSet
EndChar
StartChar: Sacute
Encoding: 346 346 121
Width: 599
Flags: MW
HStem: -1 53<224 300.5> 631 50<342 434.5> 873 20G<499 499>
VStem: 145 65<469 524 469 549> 463 63<168 238> 541 56<560.5 579.5>
LayerCount: 2
Back
Fore
SplineSet
323 771 m 1
 499 893 l 1
 543 848 l 1
 356 736 l 1
 323 771 l 1
408 631 m 0
 266 631 210 557 210 491 c 0
 210 447 244 419 346 387 c 0
 479 345 526 302 526 223 c 0
 526 70 352 -1 249 -1 c 0
 131 -1 47 60 37 152 c 1
 100 162 l 1
 111 86 188 52 260 52 c 0
 354 52 463 116 463 220 c 0
 463 256 442 295 321 330 c 0
 237 354 145 400 145 483 c 0
 145 615 289 681 395 681 c 0
 513 681 597 653 597 567 c 0
 597 554 595 534 589 521 c 1
 535 510 l 1
 540 523 541 536 541 546 c 0
 541 613 461 631 408 631 c 0
EndSplineSet
EndChar
StartChar: Scedilla
Encoding: 350 350 125
Width: 599
Flags: MW
HStem: -201 42<200 223 200 227.5> -61 42<226 230 230 240.5> -1 53<246 300.5> 631 50<342 434.5>
VStem: 145 65<469 524 469 549> 268 43<-115 -88> 463 63<168 238> 541 56<560.5 579.5>
LayerCount: 2
Back
Fore
SplineSet
408 631 m 0
 266 631 210 557 210 491 c 0
 210 447 244 419 346 387 c 0
 479 345 526 302 526 223 c 0
 526 70 352 -1 249 -1 c 0
 243 -1 237 -1 231 0 c 1
 226 -19 l 1
 230 -19 l 2
 278 -19 311 -46 311 -89 c 0
 311 -148 256 -201 199 -201 c 0
 170 -201 147 -188 134 -166 c 1
 171 -136 l 1
 173 -149 192 -159 208 -159 c 0
 238 -159 268 -131 268 -99 c 0
 268 -77 252 -61 229 -61 c 0
 216 -61 200 -67 194 -72 c 1
 172 -42 l 1
 197 3 l 1
 107 19 45 74 37 152 c 1
 100 162 l 1
 111 86 188 52 260 52 c 0
 354 52 463 116 463 220 c 0
 463 256 442 295 321 330 c 0
 237 354 145 400 145 483 c 0
 145 615 289 681 395 681 c 0
 513 681 597 653 597 567 c 0
 597 554 595 534 589 521 c 1
 535 510 l 1
 540 523 541 536 541 546 c 0
 541 613 461 631 408 631 c 0
EndSplineSet
EndChar
StartChar: scedilla
Encoding: 351 351 142
Width: 460
Flags: MW
HStem: -201 42<144 167 144 171.5> -61 42<170 174 174 184.5> 0 50<175 182 175 175> 458 47<271.5 316.5>
VStem: 100 58<348.5 388.5 348.5 417.5> 212 43<-115 -88> 329 58<127 182> 386 52<413 421>
LayerCount: 2
Back
Fore
SplineSet
306 505 m 0xfe
 358 505 438 489 438 419 c 0
 438 407 435 393 431 379 c 1
 380 369 l 1
 384 378 386 390 386 399 c 0xfd
 386 443 337 458 296 458 c 0
 201 458 158 413 158 364 c 0
 158 333 190 311 254 292 c 0
 343 266 387 226 387 171 c 0
 387 36 236 0 182 0 c 2
 175 0 l 1
 170 -19 l 1
 174 -19 l 2
 222 -19 255 -46 255 -89 c 0
 255 -148 200 -201 143 -201 c 0
 114 -201 91 -188 78 -166 c 1
 115 -136 l 1
 117 -149 136 -159 152 -159 c 0
 182 -159 212 -131 212 -99 c 0
 212 -77 196 -61 173 -61 c 0
 160 -61 144 -67 138 -72 c 1
 116 -42 l 1
 141 3 l 1
 76 15 25 57 20 121 c 1
 77 130 l 1
 82 77 133 50 189 50 c 0
 255 50 329 95 329 159 c 0
 329 205 288 220 222 243 c 0
 162 264 100 288 100 355 c 0
 100 480 237 505 306 505 c 0xfe
EndSplineSet
EndChar
StartChar: Scaron
Encoding: 352 352 124
Width: 599
Flags: MW
HStem: -1 53<224 300.5> 631 50<342 434.5> 861 20G<570 570>
VStem: 145 65<469 524 469 549> 463 63<168 238> 541 56<560.5 579.5>
LayerCount: 2
Back
Fore
SplineSet
570 881 m 1
 594 838 l 1
 418 718 l 1
 315 840 l 1
 360 880 l 1
 437 792 l 1
 570 881 l 1
408 631 m 0
 266 631 210 557 210 491 c 0
 210 447 244 419 346 387 c 0
 479 345 526 302 526 223 c 0
 526 70 352 -1 249 -1 c 0
 131 -1 47 60 37 152 c 1
 100 162 l 1
 111 86 188 52 260 52 c 0
 354 52 463 116 463 220 c 0
 463 256 442 295 321 330 c 0
 237 354 145 400 145 483 c 0
 145 615 289 681 395 681 c 0
 513 681 597 653 597 567 c 0
 597 554 595 534 589 521 c 1
 535 510 l 1
 540 523 541 536 541 546 c 0
 541 613 461 631 408 631 c 0
EndSplineSet
EndChar
StartChar: uni0162
Encoding: 354 354 178
Width: 522
Flags: MW
HStem: -224 21G<133 133> 625 56<99 302 87 601 359 359 359 589>
LayerCount: 2
Back
Fore
SplineSet
170 0 m 1
 302 625 l 1
 87 625 l 1
 99 681 l 1
 601 681 l 1
 589 625 l 1
 359 625 l 1
 229 10 l 1
 170 0 l 1
199 -19 m 1
 261 -58 l 1
 133 -224 l 1
 90 -196 l 1
 164 -100 l 1
 130 -78 l 1
 199 -19 l 1
EndSplineSet
EndChar
StartChar: uni0163
Encoding: 355 355 210
Width: 373
Flags: MW
HStem: -224 21G<63 63> 446 56<71 197 59 209 266 392 71 254> 651 20G<302 302>
LayerCount: 2
Back
Fore
SplineSet
404 502 m 1
 392 446 l 1
 254 446 l 1
 162 10 l 1
 103 0 l 1
 197 446 l 1
 59 446 l 1
 71 502 l 1
 209 502 l 1
 243 661 l 1
 302 671 l 1
 266 502 l 1
 404 502 l 1
129 -19 m 1
 191 -58 l 1
 63 -224 l 1
 20 -196 l 1
 94 -100 l 1
 60 -78 l 1
 129 -19 l 1
EndSplineSet
EndChar
StartChar: tcaron
Encoding: 357 357 143
Width: 429
Flags: MW
HStem: 0 21G<103 103> 446 56<71 197 59 209 266 392 71 254> 717 20G<440 440>
LayerCount: 2
Back
Fore
SplineSet
440 737 m 1
 502 698 l 1
 374 532 l 1
 331 560 l 1
 405 656 l 1
 371 678 l 1
 440 737 l 1
404 502 m 1
 392 446 l 1
 254 446 l 1
 162 10 l 1
 103 0 l 1
 197 446 l 1
 59 446 l 1
 71 502 l 1
 209 502 l 1
 243 661 l 1
 302 671 l 1
 266 502 l 1
 404 502 l 1
EndSplineSet
EndChar
StartChar: Uring
Encoding: 366 366 173
Width: 684
Flags: MW
HStem: 0 49<234.5 399 234.5 414.5> 721 46<433.5 473> 893 47<475 511.5>
VStem: 77 56<182 285.5> 345 43<799 838.5 799 839.5> 558 42<822 857.5>
LayerCount: 2
Back
Fore
SplineSet
287 0 m 0
 128 0 77 88 77 225 c 0
 77 346 132 572 155 670 c 1
 214 680 l 1
 195 612 133 364 133 237 c 0
 133 127 172 49 297 49 c 0
 501 49 562 260 598 431 c 0
 616 514 640 634 647 669 c 1
 705 680 l 1
 700 656 679 550 664 476 c 0
 615 245 542 0 287 0 c 0
440 721 m 0
 381 721 345 757 345 804 c 0
 345 875 426 940 506 940 c 0
 567 940 600 900 600 856 c 0
 600 770 506 721 440 721 c 0
493 893 m 0
 457 893 388 864 388 813 c 0
 388 785 415 767 452 767 c 0
 497 767 558 800 558 844 c 0
 558 871 530 893 493 893 c 0
EndSplineSet
EndChar
StartChar: uring
Encoding: 367 367 205
Width: 515
Flags: MW
HStem: -6 49<144.5 199> 563 47<330.5 364.5 330.5 370> 736 46<390 406>
VStem: 45 56<104.5 141.5> 240 43<640.5 672 640.5 683> 452 44<661 701.5>
LayerCount: 2
Back
Fore
SplineSet
334 563 m 0
 273 563 240 603 240 647 c 0
 240 719 322 778 390 782 c 0
 448 782 496 754 496 701 c 0
 496 619 406 563 334 563 c 0
389 736 m 0
 330 736 283 688 283 656 c 0
 283 625 315 610 346 610 c 0
 383 610 452 635 452 687 c 0
 452 716 423 736 389 736 c 0
125 289 m 0
 113 233 101 175 101 130 c 0
 101 79 117 43 172 43 c 0
 241 43 322 92 348 116 c 0
 358 124 365 138 370 159 c 2
 447 494 l 1
 502 504 l 1
 397 10 l 1
 333 0 l 1
 348 74 l 1
 315 36 238 -6 160 -6 c 0
 71 -6 45 46 45 117 c 0
 45 166 58 225 70 283 c 0
 79 326 102 423 131 494 c 1
 188 504 l 1
 181 488 143 374 125 289 c 0
EndSplineSet
EndChar
StartChar: Uhungarumlaut
Encoding: 368 368 175
Width: 684
Flags: MW
HStem: 0 49<234.5 399 234.5 414.5> 873 20G<471 471 632 632>
VStem: 77 56<182 285.5>
LayerCount: 2
Back
Fore
SplineSet
287 0 m 0
 128 0 77 88 77 225 c 0
 77 346 132 572 155 670 c 1
 214 680 l 1
 195 612 133 364 133 237 c 0
 133 127 172 49 297 49 c 0
 501 49 562 260 598 431 c 0
 616 514 640 634 647 669 c 1
 705 680 l 1
 700 656 679 550 664 476 c 0
 615 245 542 0 287 0 c 0
295 771 m 1
 471 893 l 1
 515 848 l 1
 329 736 l 1
 295 771 l 1
456 771 m 1
 632 893 l 1
 675 848 l 1
 489 736 l 1
 456 771 l 1
EndSplineSet
EndChar
StartChar: Zacute
Encoding: 377 377 129
Width: 621
Flags: MW
HStem: 0 61<18 519 75 496> 620 61<179 577 155 635> 873 20G<523 523>
LayerCount: 2
Back
Fore
SplineSet
18 0 m 1
 4 55 l 1
 577 620 l 1
 155 620 l 1
 179 681 l 1
 635 681 l 1
 649 626 l 1
 75 61 l 1
 519 61 l 1
 496 0 l 1
 18 0 l 1
347 771 m 1
 523 893 l 1
 567 848 l 1
 380 736 l 1
 347 771 l 1
EndSplineSet
EndChar
StartChar: zacute
Encoding: 378 378 144
Width: 453
Flags: MW
HStem: 0 56<61 351> 446 56<113 387 91 452> 704 20G<386 386>
LayerCount: 2
Back
Fore
SplineSet
351 0 m 1
 -3 0 l 1
 -16 46 l 1
 387 446 l 1
 91 446 l 1
 113 502 l 1
 452 502 l 1
 465 457 l 1
 61 56 l 1
 372 56 l 1
 351 0 l 1
210 602 m 1
 386 724 l 1
 430 679 l 1
 243 567 l 1
 210 602 l 1
EndSplineSet
EndChar
StartChar: Zdotaccent
Encoding: 379 379 132
Width: 621
Flags: MW
HStem: 0 61<18 519 75 496> 620 61<179 577 155 635> 800 20G<470 470>
LayerCount: 2
Back
Fore
SplineSet
18 0 m 1
 4 55 l 1
 577 620 l 1
 155 620 l 1
 179 681 l 1
 635 681 l 1
 649 626 l 1
 75 61 l 1
 519 61 l 1
 496 0 l 1
 18 0 l 1
470 820 m 1
 444 738 l 1
 368 728 l 1
 395 810 l 1
 470 820 l 1
EndSplineSet
EndChar
StartChar: zdotaccent
Encoding: 380 380 147
Width: 453
Flags: MW
HStem: 0 56<61 351> 446 56<113 387 91 452> 643 20G<366 366>
LayerCount: 2
Back
Fore
SplineSet
351 0 m 1
 -3 0 l 1
 -16 46 l 1
 387 446 l 1
 91 446 l 1
 113 502 l 1
 452 502 l 1
 465 457 l 1
 61 56 l 1
 372 56 l 1
 351 0 l 1
366 663 m 1
 341 581 l 1
 265 571 l 1
 291 653 l 1
 366 663 l 1
EndSplineSet
EndChar
StartChar: Zcaron
Encoding: 381 381 131
Width: 621
Flags: MW
HStem: 0 61<18 519 75 496> 620 61<179 577 155 635> 861 20G<557 557>
LayerCount: 2
Back
Fore
SplineSet
18 0 m 1
 4 55 l 1
 577 620 l 1
 155 620 l 1
 179 681 l 1
 635 681 l 1
 649 626 l 1
 75 61 l 1
 519 61 l 1
 496 0 l 1
 18 0 l 1
557 881 m 1
 581 838 l 1
 405 718 l 1
 302 840 l 1
 347 880 l 1
 424 792 l 1
 557 881 l 1
EndSplineSet
EndChar
StartChar: zcaron
Encoding: 382 382 146
Width: 453
Flags: MW
HStem: 0 56<61 351> 446 56<113 387 91 452> 692 20G<448 448>
LayerCount: 2
Back
Fore
SplineSet
351 0 m 1
 -3 0 l 1
 -16 46 l 1
 387 446 l 1
 91 446 l 1
 113 502 l 1
 452 502 l 1
 465 457 l 1
 61 56 l 1
 372 56 l 1
 351 0 l 1
448 712 m 1
 472 669 l 1
 296 549 l 1
 193 671 l 1
 238 711 l 1
 315 623 l 1
 448 712 l 1
EndSplineSet
EndChar
StartChar: caron
Encoding: 711 711 139
Width: 500
Flags: MW
HStem: 549 21G<300 300> 692 20G<452 452>
LayerCount: 2
Back
Fore
SplineSet
452 712 m 1
 476 669 l 1
 300 549 l 1
 197 671 l 1
 242 711 l 1
 319 623 l 1
 452 712 l 1
EndSplineSet
EndChar
StartChar: breve
Encoding: 728 728 117
Width: 500
Flags: MW
HStem: 559 46<310.5 349.5> 663 20G<456 456>
LayerCount: 2
Back
Fore
SplineSet
329 605 m 0
 392 605 427 634 456 683 c 1
 480 652 l 1
 449 597 381 559 318 559 c 0
 248 559 198 595 185 648 c 1
 222 678 l 1
 243 617 292 605 329 605 c 0
EndSplineSet
EndChar
StartChar: dotaccent
Encoding: 729 729 211
Width: 500
Flags: MW
HStem: 547 21G<270 270> 619 20G<371 371>
LayerCount: 2
Back
Fore
SplineSet
371 639 m 1
 346 557 l 1
 270 547 l 1
 296 629 l 1
 371 639 l 1
EndSplineSet
EndChar
StartChar: ogonek
Encoding: 731 731 134
Width: 500
Flags: MW
HStem: -201 43<233 259.5> 23 20G<301 301>
VStem: 155 43<-127 -88 -127 -87>
LayerCount: 2
Back
Fore
SplineSet
329 -127 m 1
 346 -159 l 1
 324 -180 280 -201 239 -201 c 0
 188 -201 155 -169 155 -122 c 0
 155 -52 229 7 283 34 c 2
 301 43 l 1
 317 12 l 1
 281 -11 l 2
 250 -31 198 -63 198 -113 c 0
 198 -141 218 -158 248 -158 c 0
 280 -158 302 -145 329 -127 c 1
EndSplineSet
EndChar
StartChar: hungarumlaut
Encoding: 733 733 145
Width: 500
Flags: MW
HStem: 567 21G<173 173 334 334> 704 20G<316 316 476 476>
LayerCount: 2
Back
Fore
SplineSet
300 602 m 1
 476 724 l 1
 520 679 l 1
 334 567 l 1
 300 602 l 1
140 602 m 1
 316 724 l 1
 359 679 l 1
 173 567 l 1
 140 602 l 1
EndSplineSet
EndChar
StartChar: endash
Encoding: 8211 8211 92
Width: 596
Flags: MW
HStem: 222 54<84 508 63 530>
LayerCount: 2
Back
Fore
SplineSet
508 222 m 1
 63 222 l 1
 84 276 l 1
 530 276 l 1
 508 222 l 1
EndSplineSet
EndChar
StartChar: emdash
Encoding: 8212 8212 73
Width: 877
Flags: MW
HStem: 222 56<85 790 63 812>
LayerCount: 2
Back
Fore
SplineSet
790 222 m 1
 63 222 l 1
 85 278 l 1
 812 278 l 1
 790 222 l 1
EndSplineSet
EndChar
StartChar: quoteleft
Encoding: 8216 8216 84
Width: 182
Flags: MW
HStem: 544 21G<150 150> 729 20G<217 217>
LayerCount: 2
Back
Fore
SplineSet
150 544 m 1
 88 583 l 1
 217 749 l 1
 260 721 l 1
 185 625 l 1
 220 603 l 1
 150 544 l 1
EndSplineSet
EndChar
StartChar: quoteright
Encoding: 8217 8217 67
Width: 182
Flags: MW
HStem: 544 21G<129 129> 729 20G<196 196>
LayerCount: 2
Back
Fore
SplineSet
196 749 m 1
 257 710 l 1
 129 544 l 1
 86 572 l 1
 160 668 l 1
 126 690 l 1
 196 749 l 1
EndSplineSet
EndChar
StartChar: quotedblleft
Encoding: 8220 8220 91
Width: 348
Flags: MW
HStem: 544 21G<150 150 316 316> 729 20G<217 217 383 383>
LayerCount: 2
Back
Fore
SplineSet
316 544 m 1
 254 583 l 1
 383 749 l 1
 426 721 l 1
 351 625 l 1
 386 603 l 1
 316 544 l 1
150 544 m 1
 88 583 l 1
 217 749 l 1
 260 721 l 1
 185 625 l 1
 220 603 l 1
 150 544 l 1
EndSplineSet
EndChar
StartChar: quotedblright
Encoding: 8221 8221 66
Width: 348
Flags: MW
HStem: 544 21G<129 129 295 295> 729 20G<196 196 362 362>
LayerCount: 2
Back
Fore
SplineSet
196 749 m 1
 257 710 l 1
 129 544 l 1
 86 572 l 1
 160 668 l 1
 126 690 l 1
 196 749 l 1
362 749 m 1
 423 710 l 1
 295 544 l 1
 252 572 l 1
 326 668 l 1
 292 690 l 1
 362 749 l 1
EndSplineSet
EndChar
StartChar: bullet
Encoding: 8226 8226 78
Width: 378
Flags: MW
HStem: 164 178<180 193.5>
LayerCount: 2
Back
Fore
SplineSet
276 253 m 0
 266 204 218 164 169 164 c 0
 126 164 97 194 97 235 c 0
 97 292 153 342 207 342 c 0
 257 342 283 300 276 253 c 0
EndSplineSet
EndChar
StartChar: ellipsis
Encoding: 8230 8230 69
Width: 734
Flags: MW
HStem: 0 21G<14 14 270 270 526 526> 72 20G<115 115 371 371 627 627>
LayerCount: 2
Back
Fore
SplineSet
115 92 m 1
 90 10 l 1
 14 0 l 1
 40 82 l 1
 115 92 l 1
627 92 m 1
 602 10 l 1
 526 0 l 1
 552 82 l 1
 627 92 l 1
371 92 m 1
 346 10 l 1
 270 0 l 1
 296 82 l 1
 371 92 l 1
EndSplineSet
EndChar
StartChar: guilsinglleft
Encoding: 8249 8249 110
Width: 404
Flags: MW
HStem: 64 21G<235 235> 420 20G<333 333>
LayerCount: 2
Back
Fore
SplineSet
235 64 m 1
 70 250 l 1
 333 440 l 1
 360 400 l 1
 150 249 l 1
 280 104 l 1
 235 64 l 1
EndSplineSet
EndChar
StartChar: guilsinglright
Encoding: 8250 8250 64
Width: 404
Flags: MW
HStem: 66 21G<88 88> 422 20G<149 149>
LayerCount: 2
Back
Fore
SplineSet
88 66 m 1
 59 106 l 1
 250 251 l 1
 106 402 l 1
 149 442 l 1
 332 252 l 1
 88 66 l 1
EndSplineSet
EndChar
StartChar: Euro
Encoding: 8364 8364 75
Width: 663
Flags: MW
HStem: 0 54<323 399> 261 57<83 142 61 153 83 195 205 419> 385 57<109 176 87 204 109 230 260 466> 637 54<463 541>
VStem: 139 55<193 231>
LayerCount: 2
Back
Fore
SplineSet
368 0 m 0
 238 0 139 101 139 225 c 0
 139 237 140 249 142 261 c 1
 61 261 l 1
 83 318 l 1
 153 318 l 1
 159 342 168 365 176 385 c 1
 87 385 l 1
 109 442 l 1
 204 442 l 1
 241 514 376 691 526 691 c 0
 591 691 644 669 678 630 c 1
 632 594 l 1
 609 617 572 637 510 637 c 0
 416 637 305 519 260 442 c 1
 488 442 l 1
 466 385 l 1
 230 385 l 1
 219 361 212 339 205 318 c 1
 442 318 l 1
 419 261 l 1
 195 261 l 1
 194 254 194 247 194 240 c 0
 194 146 273 54 373 54 c 0
 432 54 478 68 516 89 c 1
 547 51 l 1
 495 19 430 0 368 0 c 0
EndSplineSet
EndChar
StartChar: trademark
Encoding: 8482 8482 97
Width: 559
Flags: MW
HStem: 460 21G<294 294 450 450> 645 46<96 212 87 384 258 375 258 258> 672 20G<632 632>
VStem: 446 44
LayerCount: 2
Back
Fore
SplineSet
632 692 m 1xb0
 654 469 l 1
 607 461 l 1
 591 617 l 1
 504 470 l 1
 450 460 l 1
 443 619 l 1
 350 470 l 1
 294 460 l 1
 432 682 l 1
 487 691 l 1xd0
 494 535 l 1
 580 683 l 1
 632 692 l 1xb0
384 691 m 1xb0
 375 645 l 1
 258 645 l 1
 221 471 l 1
 172 461 l 1
 212 645 l 1
 87 645 l 1
 96 691 l 1
 384 691 l 1xb0
EndSplineSet
EndChar
